<?xml version="1.0" encoding="UTF-8" standalone="no"?>
<svg
   xmlns:dc="http://purl.org/dc/elements/1.1/"
   xmlns:cc="http://creativecommons.org/ns#"
   xmlns:rdf="http://www.w3.org/1999/02/22-rdf-syntax-ns#"
   xmlns:svg="http://www.w3.org/2000/svg"
   xmlns="http://www.w3.org/2000/svg"
   viewBox="0 0 538.69336 551.93335"
   height="551.93335"
   width="538.69336"
   xml:space="preserve"
   id="svg2"
   version="1.1"><metadata
     id="metadata8"><rdf:RDF><cc:Work
         rdf:about=""><dc:format>image/svg+xml</dc:format><dc:type
           rdf:resource="http://purl.org/dc/dcmitype/StillImage" /></cc:Work></rdf:RDF></metadata><defs
     id="defs6" /><g
     transform="matrix(1.3333333,0,0,-1.3333333,0,551.93333)"
     id="g10"><g
       transform="scale(0.1)"
       id="g12"><path
         id="path14"
         style="fill:#f2f2f2;fill-opacity:1;fill-rule:nonzero;stroke:none"
         d="m 1775.58,362.199 c -189.76,-109.547 -498.38,-109 -689.33,1.25 -190.945,110.242 -191.91,288.43 -2.16,397.981 189.76,109.562 498.38,109 689.33,-1.239 190.95,-110.25 191.91,-288.429 2.16,-397.992" /><path
         id="path16"
         style="fill:#f2f2f2;fill-opacity:1;fill-rule:nonzero;stroke:none"
         d="m 3102.34,485.75 -1079.4,622.96 c -23.1,13.34 -20.2,36.64 6.48,52.04 l 61.27,35.37 c 26.68,15.41 67.04,17.08 90.13,3.74 l 1079.4,-622.95 c 23.1,-13.34 20.2,-36.648 -6.48,-52.051 l -61.27,-35.379 c -26.68,-15.398 -67.04,-17.07 -90.13,-3.73" /><path
         id="path18"
         style="fill:#999999;fill-opacity:1;fill-rule:nonzero;stroke:none"
         d="m 3208.5,3546.42 -993.23,573.44 c -18.65,10.77 -35.49,11.09 -48.61,3.64 l -97.98,-56.69 115.35,-89.68 28.2,7.14 V 1630.59 c 0,-55.2 33.56,-119.33 74.96,-143.24 l 870.88,-637.459 v -39.282 l 101.37,59.18 -0.01,0.402 c 14.7,9.75 24.03,30.18 24.03,59.079 v 2473.92 c 0,55.2 -33.56,119.33 -74.96,143.23" /><path
         id="path20"
         style="fill:#e6e6e6;fill-opacity:1;fill-rule:nonzero;stroke:none"
         d="m 3056.62,3336.29 v 111.08 l -97.67,-73.38 -426.88,178.9 -319.83,232.79 v 198.63 l -28.34,-7.08 -115.14,89.58 97.93,56.68 c 13.16,7.34 29.85,7.08 48.59,-3.55 l 993.16,-573.63 c 27.33,-15.69 51.11,-48.83 64.02,-85.27 l -215.84,-124.75" /><path
         id="path22"
         style="fill:#cccccc;fill-opacity:1;fill-rule:nonzero;stroke:none"
         d="m 3109.91,815.121 -993.23,573.439 c -41.4,23.9 -74.96,88.03 -74.96,143.23 v 2473.92 c 0,55.2 33.56,80.58 74.96,56.67 l 993.23,-573.43 c 41.4,-23.91 74.97,-88.04 74.97,-143.24 V 871.789 c 0,-55.199 -33.57,-80.578 -74.97,-56.668" /><path
         id="path24"
         style="fill:#333333;fill-opacity:1;fill-rule:nonzero;stroke:none"
         d="m 2063.62,1517.18 v 2477.84 c 0,40.23 24.47,58.73 54.64,41.3 l 990.07,-571.61 c 30.18,-17.42 54.63,-64.16 54.63,-104.39 V 882.48 c 0,-40.23 -24.45,-58.73 -54.63,-41.308 l -990.07,571.618 c -30.17,17.42 -54.64,64.15 -54.64,104.39" /><path
         id="path26"
         style="fill:#80c5ff;fill-opacity:1;fill-rule:nonzero;stroke:none"
         d="M 3133.91,3334.02 V 933.859 c 0,-35.699 -25.2,-49.82 -56.1,-31.98 L 2148.9,1438.18 c -31.1,17.96 -56.32,61.46 -56.32,97.15 v 2399.91 c 0,35.69 25.22,50.06 56.32,32.1 l 169.71,-97.98 c 7.08,-4.09 13.31,-13.06 15.27,-22 l 7.86,-35.86 c 5.91,-34.34 32.87,-72.54 64.42,-90.76 l 414.17,-239.12 c 31.56,-18.21 58.72,-11.27 64.43,16.37 l 7.86,26.78 c 1.96,6.67 8.19,8.45 15.27,4.37 l 169.92,-98.11 c 30.9,-17.83 56.1,-61.31 56.1,-97.01" /><path
         id="path28"
         style="fill:#57b2ff;fill-opacity:1;fill-rule:nonzero;stroke:none"
         d="m 2925.62,2738.23 c 16.27,-9.39 29.37,-32.08 29.31,-50.85 l -0.28,-101.6 c -0.06,-18.69 -13.24,-26.28 -29.51,-16.88 l -595.55,343.84 c -16.27,9.39 -29.37,32.15 -29.32,50.85 l 0.29,101.6 c 0.05,18.77 13.24,26.28 29.51,16.89 l 595.55,-343.85" /><path
         id="path30"
         style="fill:#57b2ff;fill-opacity:1;fill-rule:nonzero;stroke:none"
         d="m 2925.62,2382.84 c 16.27,-9.39 29.37,-32.16 29.31,-50.85 l -0.28,-101.67 c -0.06,-18.7 -13.24,-26.21 -29.51,-16.82 l -595.55,343.84 c -16.27,9.39 -29.37,32.09 -29.32,50.79 l 0.29,101.67 c 0.05,18.69 13.24,26.28 29.51,16.88 l 595.55,-343.84" /><path
         id="path32"
         style="fill:#b3b3b3;fill-opacity:1;fill-rule:nonzero;stroke:none"
         d="m 2041.72,2311.31 -0.04,0.02 v 171.98 l 0.04,-0.03 v -171.97" /><path
         id="path34"
         style="fill:#8f8f8f;fill-opacity:1;fill-rule:nonzero;stroke:none"
         d="m 2063.62,2298.65 -21.9,12.66 v 171.97 l 21.9,-12.65 v -171.98" /><path
         id="path36"
         style="fill:#242424;fill-opacity:1;fill-rule:nonzero;stroke:none"
         d="m 2092.58,2281.92 -28.96,16.73 v 171.98 l 28.96,-16.74 v -171.97" /><path
         id="path38"
         style="fill:#5a8ab3;fill-opacity:1;fill-rule:nonzero;stroke:none"
         d="m 2092.66,2281.87 -0.08,0.05 v 171.97 l 0.08,-0.04 v -171.98" /><path
         id="path40"
         style="fill:#57b2ff;fill-opacity:1;fill-rule:nonzero;stroke:none"
         d="m 2955.03,1910.73 -0.22,-81.11 c -0.23,-24.93 -17.9,-35.13 -39.66,-22.67 l -822.49,474.92 v 171.98 l 822.95,-474.91 c 21.75,-12.7 39.42,-43.06 39.42,-68.21" /><path
         id="path42"
         style="fill:#57b2ff;fill-opacity:1;fill-rule:nonzero;stroke:none"
         d="m 2476.54,1777.88 c 15.68,-9.05 28.36,-31.03 28.32,-49.05 l -0.8,-278.46 c -0.04,-18.02 -12.82,-25.23 -28.5,-16.18 l -242.34,139.91 c -15.67,9.06 -28.31,30.94 -28.26,48.96 l 0.79,278.45 c 0.05,18.02 12.77,25.34 28.45,16.28 l 242.34,-139.91" /><path
         id="path44"
         style="fill:#57b2ff;fill-opacity:1;fill-rule:nonzero;stroke:none"
         d="m 2926.67,1518.47 c 15.69,-9.05 28.31,-31.01 28.26,-49.02 l -0.79,-278.46 c -0.05,-18.02 -12.76,-25.27 -28.44,-16.21 l -242.33,139.91 c -15.68,9.05 -28.38,30.97 -28.33,48.98 l 0.79,278.47 c 0.05,18.02 12.83,25.29 28.51,16.24 l 242.33,-139.91" /><path
         id="path46"
         style="fill:#57b2ff;fill-opacity:1;fill-rule:nonzero;stroke:none"
         d="m 2909.28,3293.56 c 25.29,-14.6 45.74,-50.02 45.65,-79.15 l -0.67,-238.35 c -0.08,-29.06 -20.66,-40.79 -45.95,-26.19 l -687.8,397.1 c -25.29,14.6 -45.74,50.02 -45.65,79.08 l 0.67,238.36 c 0.08,29.12 20.66,40.86 45.95,26.25 l 687.8,-397.1" /><path
         id="path48"
         style="fill:#b3b3b3;fill-opacity:1;fill-rule:nonzero;stroke:none"
         d="m 2041.72,2760.39 -0.04,0.03 v 466.98 l 0.04,-0.02 v -466.99" /><path
         id="path50"
         style="fill:#8f8f8f;fill-opacity:1;fill-rule:nonzero;stroke:none"
         d="m 2063.62,2747.74 -21.9,12.65 v 466.99 l 21.9,-12.66 v -466.98" /><path
         id="path52"
         style="fill:#242424;fill-opacity:1;fill-rule:nonzero;stroke:none"
         d="m 2092.58,2731 -28.96,16.74 v 466.98 l 28.96,-16.73 V 2731" /><path
         id="path54"
         style="fill:#5a8ab3;fill-opacity:1;fill-rule:nonzero;stroke:none"
         d="m 2092.66,2730.96 -0.08,0.04 v 466.99 l 0.08,-0.04 v -466.99" /><path
         id="path56"
         style="fill:#57b2ff;fill-opacity:1;fill-rule:nonzero;stroke:none"
         d="M 2168.79,3108.44 2167.66,2733 c 0,-24.93 -17.67,-34.89 -39.65,-22.43 l -35.35,20.39 v 466.99 l 36.71,-21.3 c 21.98,-12.69 39.42,-43.28 39.42,-68.21" /><path
         id="path58"
         style="fill:#666666;fill-opacity:1;fill-rule:nonzero;stroke:none"
         d="m 2444.04,3755.52 c 0,-19.1 -13.49,-26.79 -30.13,-17.18 -16.64,9.6 -30.13,32.87 -30.13,51.97 0,19.09 13.49,26.79 30.13,17.18 16.64,-9.61 30.13,-32.88 30.13,-51.97" /><path
         id="path60"
         style="fill:#333333;fill-opacity:1;fill-rule:nonzero;stroke:none"
         d="m 2430.42,3763.38 c 0,-10.46 -7.39,-14.68 -16.51,-9.42 -9.12,5.27 -16.52,18.02 -16.52,28.48 0,10.47 7.4,14.69 16.52,9.42 9.12,-5.27 16.51,-18.02 16.51,-28.48" /><path
         id="path62"
         style="fill:#000000;fill-opacity:1;fill-rule:nonzero;stroke:none"
         d="m 2758.02,3616.67 -294.69,170.14 c -4.86,2.81 -8.8,10.32 -8.8,16.79 v 11.93 c 0,6.47 3.94,9.45 8.8,6.65 l 294.69,-170.15 c 4.85,-2.8 8.79,-10.32 8.79,-16.79 v -11.92 c 0,-6.47 -3.94,-9.45 -8.79,-6.65" /><path
         id="path64"
         style="fill:#e6e6e6;fill-opacity:1;fill-rule:nonzero;stroke:none"
         d="m 3255.93,3021.92 c -5.84,3.4 -13.94,2.92 -22.88,-2.25 -17.77,-10.26 -32.1,-35.08 -32.04,-55.5 l 0.83,-294.05 c 0.03,-10.08 3.62,-17.22 9.41,-20.59 l 17.83,-10.36 c -5.79,3.37 -9.37,10.51 -9.4,20.58 l -0.84,294.05 c -0.06,20.42 14.28,45.25 32.04,55.51 8.95,5.16 17.04,5.64 22.89,2.25 l -17.84,10.36" /><path
         id="path66"
         style="fill:#bfbfbf;fill-opacity:1;fill-rule:nonzero;stroke:none"
         d="m 3250.88,3009.31 c 17.77,10.26 32.21,2.04 32.26,-18.39 l 0.84,-294.04 c 0.05,-20.24 -14.28,-45.25 -32.05,-55.51 -17.78,-10.26 -32.19,-1.85 -32.26,18.38 l -0.83,294.05 c -0.06,20.42 14.28,45.25 32.04,55.51" /><path
         id="path68"
         style="fill:#cccccc;fill-opacity:1;fill-rule:nonzero;stroke:none"
         d="m 3256.12,2976.25 c 14.58,8.41 26.41,1.67 26.46,-15.08 l 0.68,-241.21 c 0.04,-16.59 -11.71,-37.11 -26.29,-45.53 -14.58,-8.41 -26.4,-1.51 -26.45,15.08 l -0.68,241.21 c -0.05,16.75 11.7,37.11 26.28,45.53" /><path
         id="path70"
         style="fill:#8482ff;fill-opacity:1;fill-rule:nonzero;stroke:none"
         d="m 2010.74,3783.7 -242.33,139.91 c -7.88,4.55 -15,4.97 -20.16,1.98 l -45.54,-26.47 c 5.14,2.99 12.27,2.57 20.15,-1.98 l 242.34,-139.91 c 15.67,-9.05 28.37,-31.03 28.32,-49.05 l -0.79,-278.46 c -0.03,-8.94 -3.19,-15.21 -8.27,-18.17 l 45.55,26.47 c 5.09,2.96 8.24,9.24 8.26,18.17 l 0.79,278.46 c 0.05,18.02 -12.63,40 -28.32,49.05" /><path
         id="path72"
         style="fill:#4d4bb7;fill-opacity:1;fill-rule:nonzero;stroke:none"
         d="m 1965.2,3757.23 c 15.67,-9.05 28.37,-31.03 28.32,-49.05 l -0.79,-278.46 c -0.05,-18.02 -12.83,-25.23 -28.51,-16.18 l -242.33,139.91 c -15.69,9.06 -28.31,30.94 -28.27,48.95 l 0.8,278.47 c 0.04,18.01 12.76,25.33 28.44,16.27 l 242.34,-139.91" /><path
         id="path74"
         style="fill:#ffffff;fill-opacity:1;fill-rule:nonzero;stroke:none"
         d="m 1826.24,3640.87 -22.76,-61.12 -94.86,54.76 58.88,83.06 c 8.27,11.66 28.94,-0.27 37.21,-21.48 l 21.53,-55.22" /><path
         id="path76"
         style="fill:#e6e6e6;fill-opacity:1;fill-rule:nonzero;stroke:none"
         d="m 1863.61,3545.04 -60.13,34.71 22.76,61.12 z" /><path
         id="path78"
         style="fill:#ffffff;fill-opacity:1;fill-rule:nonzero;stroke:none"
         d="m 1958.46,3490.27 -94.85,54.77 -37.37,95.83 28.77,77.17 c 8.63,23.11 43.26,3.12 51.89,-29.96 l 51.56,-197.81" /><path
         id="path80"
         style="fill:#e6e6e6;fill-opacity:1;fill-rule:nonzero;stroke:none"
         d="m 1826.67,3749.47 c 0,-13.42 -9.48,-18.83 -21.17,-12.07 -11.7,6.75 -21.18,23.1 -21.18,36.53 0,13.41 9.48,18.82 21.18,12.07 11.69,-6.75 21.17,-23.11 21.17,-36.53" /><path
         id="path82"
         style="fill:#8482ff;fill-opacity:1;fill-rule:nonzero;stroke:none"
         d="m 2902.25,2724.11 -595.55,343.84 c -8.18,4.72 -15.58,5.17 -20.93,2.07 l -45.54,-26.47 c 5.34,3.1 12.74,2.65 20.92,-2.07 l 595.55,-343.84 c 16.27,-9.39 29.37,-32.09 29.32,-50.85 l -0.3,-101.6 c -0.02,-9.31 -3.3,-15.86 -8.59,-18.94 l 45.55,26.48 c 5.29,3.07 8.57,9.62 8.6,18.93 l 0.28,101.6 c 0.06,18.76 -13.04,41.46 -29.31,50.85" /><path
         id="path84"
         style="fill:#4d4bb7;fill-opacity:1;fill-rule:nonzero;stroke:none"
         d="m 2856.7,2697.64 c 16.27,-9.39 29.37,-32.09 29.32,-50.85 l -0.3,-101.6 c -0.04,-18.7 -13.23,-26.28 -29.51,-16.89 l -595.54,343.84 c -16.27,9.39 -29.37,32.16 -29.32,50.85 l 0.29,101.61 c 0.05,18.76 13.23,26.28 29.51,16.88 l 595.55,-343.84" /><path
         id="path86"
         style="fill:#ffffff;fill-opacity:1;fill-rule:nonzero;stroke:none"
         d="m 2836.93,2635.44 -546.2,316.89 c -6.25,3.61 -11.32,-0.23 -11.32,-8.57 0,-8.34 5.07,-18.03 11.32,-21.64 l 546.2,-316.89 c 6.25,-3.61 11.32,0.22 11.32,8.56 0,8.34 -5.07,18.03 -11.32,21.65" /><path
         id="path88"
         style="fill:#8482ff;fill-opacity:1;fill-rule:nonzero;stroke:none"
         d="m 2902.25,2368.72 -595.55,343.83 c -8.17,4.73 -15.57,5.16 -20.91,2.06 l -45.55,-26.48 c 5.34,3.11 12.74,2.67 20.91,-2.04 l 595.55,-343.85 c 16.27,-9.39 29.37,-32.15 29.32,-50.85 l -0.3,-101.67 c -0.02,-9.28 -3.29,-15.81 -8.56,-18.88 l 45.55,26.47 c 5.28,3.07 8.54,9.6 8.57,18.88 l 0.28,101.68 c 0.06,18.69 -13.04,41.45 -29.31,50.85" /><path
         id="path90"
         style="fill:#4d4bb7;fill-opacity:1;fill-rule:nonzero;stroke:none"
         d="m 2856.7,2342.24 c 16.27,-9.39 29.37,-32.15 29.32,-50.85 l -0.3,-101.67 c -0.04,-18.69 -13.23,-26.21 -29.51,-16.81 l -595.54,343.84 c -16.27,9.39 -29.37,32.08 -29.32,50.78 l 0.29,101.67 c 0.05,18.7 13.23,26.28 29.51,16.89 l 595.55,-343.85" /><path
         id="path92"
         style="fill:#ffffff;fill-opacity:1;fill-rule:nonzero;stroke:none"
         d="m 2836.93,2285.75 -546.2,316.89 c -6.25,3.61 -11.32,-0.23 -11.32,-8.57 0,-8.34 5.07,-18.03 11.32,-21.64 l 546.2,-316.89 c 6.25,-3.61 11.32,0.22 11.32,8.56 0,8.34 -5.07,18.03 -11.32,21.65" /><path
         id="path94"
         style="fill:#8482ff;fill-opacity:1;fill-rule:nonzero;stroke:none"
         d="m 2010.74,2018.71 -242.33,139.92 c -7.88,4.54 -15,4.96 -20.16,1.97 l -45.54,-26.47 c 5.14,3 12.27,2.58 20.15,-1.97 l 242.34,-139.91 c 15.67,-9.06 28.37,-31.04 28.32,-49.06 l -0.79,-278.46 c -0.03,-8.93 -3.19,-15.21 -8.27,-18.17 l 45.55,26.48 c 5.09,2.96 8.24,9.23 8.26,18.16 l 0.79,278.47 c 0.05,18.01 -12.63,39.99 -28.32,49.04" /><path
         id="path96"
         style="fill:#4d4bb7;fill-opacity:1;fill-rule:nonzero;stroke:none"
         d="m 1965.2,1992.25 c 15.67,-9.06 28.37,-31.04 28.32,-49.06 l -0.79,-278.46 c -0.05,-18.01 -12.83,-25.23 -28.51,-16.17 l -242.33,139.91 c -15.69,9.05 -28.31,30.94 -28.27,48.95 l 0.8,278.46 c 0.04,18.02 12.76,25.33 28.44,16.28 l 242.34,-139.91" /><path
         id="path98"
         style="fill:#ffffff;fill-opacity:1;fill-rule:nonzero;stroke:none"
         d="m 1957.25,1897.64 v -0.39 l -115.44,-9.7 -117.18,144.39 c 0,4.54 3.2,6.36 7.16,4.08 l 218.31,-126.05 c 3.95,-2.27 7.15,-7.8 7.15,-12.33" /><path
         id="path100"
         style="fill:#ffffff;fill-opacity:1;fill-rule:nonzero;stroke:none"
         d="m 1841.81,1878.4 115.44,9.73 v -140.56 c 0,-4.53 -3.2,-6.36 -7.15,-4.08 l -218.31,126.04 c -3.96,2.29 -7.16,7.81 -7.16,12.35 v 140.99 l 115.45,-142.33 1.73,-2.14" /><path
         id="path102"
         style="fill:#8482ff;fill-opacity:1;fill-rule:nonzero;stroke:none"
         d="m 2892.26,1964.75 -1078.22,622.51 c -10.95,6.32 -20.88,6.91 -28.06,2.74 l -45.55,-26.47 c 7.18,4.17 17.11,3.58 28.07,-2.74 l 1078.21,-622.51 c 21.81,-12.6 39.38,-43.03 39.31,-68.08 l -0.24,-81.15 c -0.03,-12.47 -4.42,-21.25 -11.51,-25.37 l 45.55,26.48 c 7.09,4.12 11.48,12.89 11.52,25.36 l 0.22,81.15 c 0.08,25.06 -17.49,55.49 -39.3,68.08" /><path
         id="path104"
         style="fill:#4d4bb7;fill-opacity:1;fill-rule:nonzero;stroke:none"
         d="m 2846.71,1938.28 c 21.81,-12.6 39.38,-43.03 39.31,-68.08 l -0.24,-81.16 c -0.07,-25.05 -17.75,-35.2 -39.56,-22.6 l -1078.21,622.5 c -21.75,12.56 -39.38,43.09 -39.31,68.15 l 0.23,81.15 c 0.08,25.06 17.81,35.11 39.57,22.55 l 1078.21,-622.51" /><path
         id="path106"
         style="fill:#ffffff;fill-opacity:1;fill-rule:nonzero;stroke:none"
         d="m 2818.28,1877.1 -1037.84,602.82 c -6.26,3.61 -11.33,-0.23 -11.33,-8.57 0,-8.34 5.07,-18.03 11.33,-21.64 l 1037.84,-602.82 c 6.26,-3.61 11.33,0.22 11.33,8.56 0,8.34 -5.07,18.04 -11.33,21.65" /><path
         id="path108"
         style="fill:#8482ff;fill-opacity:1;fill-rule:nonzero;stroke:none"
         d="m 2453.17,1763.76 -242.34,139.91 c -7.87,4.54 -15,4.96 -20.15,1.98 l -45.55,-26.48 c 5.15,2.99 12.27,2.58 20.16,-1.97 l 242.33,-139.91 c 15.67,-9.06 28.37,-31.04 28.32,-49.06 l -0.79,-278.45 c -0.03,-8.94 -3.18,-15.22 -8.26,-18.17 l 45.54,26.47 c 5.09,2.96 8.25,9.24 8.27,18.17 l 0.79,278.46 c 0.05,18.02 -12.64,40 -28.32,49.05" /><path
         id="path110"
         style="fill:#4d4bb7;fill-opacity:1;fill-rule:nonzero;stroke:none"
         d="m 2407.62,1737.29 c 15.67,-9.06 28.37,-31.04 28.32,-49.06 l -0.79,-278.45 c -0.05,-18.02 -12.82,-25.24 -28.51,-16.19 l -242.33,139.92 c -15.69,9.05 -28.31,30.93 -28.26,48.95 l 0.79,278.46 c 0.05,18.02 12.76,25.33 28.45,16.28 l 242.33,-139.91" /><path
         id="path112"
         style="fill:#ffffff;fill-opacity:1;fill-rule:nonzero;stroke:none"
         d="m 2185.72,1752.64 c -7.04,4.06 -12.77,0.79 -12.77,-7.29 v -110.3 c 0,-8.08 5.73,-17.97 12.77,-22.03 l 200.16,-115.56 c 7.04,-4.07 12.77,-0.8 12.77,7.29 v 110.29 c 0,8.09 -5.73,17.97 -12.77,22.03 z m 200.16,-265.65 -200.16,115.56 c -12.07,6.97 -21.89,23.92 -21.89,37.77 v 110.3 c 0,13.85 9.82,19.46 21.89,12.49 l 200.16,-115.56 c 12.08,-6.97 21.9,-23.92 21.9,-37.78 v -110.3 c 0,-13.85 -9.82,-19.45 -21.9,-12.48" /><path
         id="path114"
         style="fill:#ffffff;fill-opacity:1;fill-rule:nonzero;stroke:none"
         d="m 2285.8,1674.43 c -24.31,14.05 -44.11,2.77 -44.11,-25.14 0,-27.9 19.8,-62.03 44.11,-76.08 24.32,-14.04 44.1,-2.76 44.1,25.15 0,27.91 -19.78,62.03 -44.1,76.07 z m 0,-111.68 c -29.34,16.94 -53.23,58.13 -53.23,91.81 0,33.68 23.89,47.3 53.23,30.34 29.36,-16.94 53.24,-58.12 53.24,-91.8 0,-33.69 -23.88,-47.31 -53.24,-30.35" /><path
         id="path116"
         style="fill:#ffffff;fill-opacity:1;fill-rule:nonzero;stroke:none"
         d="m 2231.74,1738.46 108.13,-62.43 v 15.96 c 0,3.33 -2.35,7.39 -5.25,9.06 l -97.64,56.37 c -2.89,1.67 -5.24,0.33 -5.24,-3 z m 117.26,-78.18 -126.39,72.97 v 26.45 c 0,9.09 6.44,12.77 14.37,8.19 l 97.64,-56.38 c 7.93,-4.57 14.38,-15.69 14.38,-24.78 v -26.45" /><path
         id="path118"
         style="fill:#8482ff;fill-opacity:1;fill-rule:nonzero;stroke:none"
         d="m 2903.3,1504.35 -242.33,139.91 c -7.89,4.55 -15.04,4.97 -20.22,1.97 l -45.54,-26.47 c 5.16,3 12.32,2.58 20.21,-1.98 l 242.34,-139.91 c 15.68,-9.05 28.31,-30.99 28.26,-49.02 l -0.79,-278.46 c -0.03,-8.94 -3.18,-15.24 -8.27,-18.2 l 45.55,26.47 c 5.09,2.96 8.24,9.25 8.27,18.21 l 0.78,278.45 c 0.05,18.02 -12.57,39.97 -28.26,49.03" /><path
         id="path120"
         style="fill:#4d4bb7;fill-opacity:1;fill-rule:nonzero;stroke:none"
         d="m 2857.76,1477.87 c 15.68,-9.05 28.31,-30.99 28.26,-49.02 l -0.79,-278.46 c -0.05,-18.02 -12.77,-25.26 -28.45,-16.21 l -242.33,139.91 c -15.68,9.06 -28.37,30.97 -28.33,48.99 l 0.8,278.46 c 0.04,18.01 12.82,25.3 28.5,16.24 l 242.34,-139.91" /><path
         id="path122"
         style="fill:#ffffff;fill-opacity:1;fill-rule:nonzero;stroke:none"
         d="m 2737.13,1483.95 c -55.38,31.97 -100.28,15.27 -100.28,-37.32 0,-34.05 18.89,-74.75 47.2,-107.93 -1.31,-8.88 -7.08,-27.51 -32.41,-13.2 0,0 34.98,-38.57 68.13,-20.42 5.65,-4.21 11.43,-8.13 17.36,-11.55 55.39,-31.99 100.29,-15.28 100.29,37.3 0,52.59 -44.9,121.13 -100.29,153.12" /><path
         id="path124"
         style="fill:#8482ff;fill-opacity:1;fill-rule:nonzero;stroke:none"
         d="m 2885.92,3279.43 -687.81,397.11 c -12.72,7.34 -24.24,8.02 -32.57,3.18 l -45.55,-26.47 c 8.32,4.84 19.86,4.16 32.57,-3.18 l 687.8,-397.11 c 25.3,-14.59 45.74,-50.01 45.66,-79.14 l -0.68,-238.36 c -0.04,-14.44 -5.14,-24.59 -13.37,-29.37 l 45.56,26.47 c 8.22,4.78 13.32,14.93 13.36,29.37 l 0.67,238.36 c 0.09,29.12 -20.36,64.55 -45.64,79.14" /><path
         id="path126"
         style="fill:#4d4bb7;fill-opacity:1;fill-rule:nonzero;stroke:none"
         d="m 2840.36,3252.96 c 25.3,-14.59 45.75,-50.01 45.66,-79.14 l -0.68,-238.36 c -0.08,-29.06 -20.66,-40.79 -45.95,-26.19 l -687.81,397.11 c -25.28,14.6 -45.73,50.01 -45.65,79.07 l 0.68,238.37 c 0.08,29.12 20.66,40.84 45.95,26.25 l 687.8,-397.11" /><path
         id="path128"
         style="fill:#ffffff;fill-opacity:1;fill-rule:nonzero;stroke:none"
         d="m 2823.07,3195.74 -648.51,375.95 c -6.26,3.61 -11.33,-0.23 -11.33,-8.57 0,-8.34 5.07,-18.03 11.33,-21.64 l 648.51,-375.94 c 6.26,-3.61 11.33,0.22 11.33,8.56 0,8.34 -5.07,18.04 -11.33,21.64" /><path
         id="path130"
         style="fill:#ffffff;fill-opacity:1;fill-rule:nonzero;stroke:none"
         d="m 2823.07,3105.72 -648.51,375.95 c -6.26,3.61 -11.33,-0.22 -11.33,-8.56 0,-8.35 5.07,-18.04 11.33,-21.65 l 648.51,-375.94 c 6.26,-3.61 11.33,0.22 11.33,8.56 0,8.34 -5.07,18.04 -11.33,21.64" /><path
         id="path132"
         style="fill:#ffffff;fill-opacity:1;fill-rule:nonzero;stroke:none"
         d="m 2823.07,3015.7 -648.51,375.95 c -6.26,3.61 -11.33,-0.22 -11.33,-8.56 0,-8.35 5.07,-18.04 11.33,-21.65 l 648.51,-375.94 c 6.26,-3.61 11.33,0.22 11.33,8.56 0,8.34 -5.07,18.04 -11.33,21.64" /><path
         id="path134"
         style="fill:#ffb78c;fill-opacity:1;fill-rule:nonzero;stroke:none"
         d="m 1773.56,3187.14 c -0.67,2.15 -1.74,4.18 -2.04,6.41 -0.32,2.32 0.24,4.66 0.3,7.01 0.13,5.2 -2.39,10.39 -6.55,13.51 -1.65,1.24 -3.55,2.19 -4.93,3.72 -1.3,1.45 -2.03,3.32 -3.06,4.96 -5.1,8.11 -16.29,9.58 -25.83,8.75 -19.8,-1.72 -38.57,-9.66 -55.85,-19.45 -23.53,-13.33 -45.32,-30.64 -60.23,-53.21 -5.83,-8.83 -10.53,-18.36 -14.42,-28.19 -3.43,-8.64 -6.22,-17.51 -8.69,-26.47 -1.64,-5.96 -3.8,-11.77 -5.07,-17.83 -0.58,-2.78 -1.02,-5.69 -1.18,-8.52 -0.17,-2.69 0.22,-5.29 -1.4,-7.66 -1.95,-2.86 -186.17,-233.18 -199.25,-249.43 -11.51,-14.33 -20.84,-32.04 -34.27,-44.37 -28,-25.7 -64.36,-44.19 -98.27,-60.65 -27.56,-13.38 -76.42,-25.51 -64.25,-67.71 3.59,-12.45 13.87,-21.58 22.78,-31 15.08,-15.98 27.26,-34.68 35.78,-54.93 0.51,-1.2 1.08,-2.52 2.24,-3.13 1.64,-0.88 3.62,0.01 5.26,0.88 48.05,25.63 179.52,118.42 201.8,131.94 l -0.12,2.09 c 6.73,3.34 11.92,9.54 16.5,15.7 16.21,21.79 31.42,44.31 45.81,67.35 14.39,23.03 27.96,46.57 40.94,70.43 13,23.92 25.41,48.15 37.46,72.56 12.06,24.43 39.99,83.53 42.31,88.47 1.73,3.69 2.72,9.24 6.79,11.19 2.57,1.24 5.56,1.2 8.2,2.59 2.98,1.58 5.6,3.78 8.06,6.06 26.81,24.82 41.86,59.5 62.95,89.34 3.76,5.32 7.79,10.54 12.83,14.67 9.56,7.83 22.78,11.72 29.25,22.24 2.62,4.26 3.84,9.2 5.02,14.06 1.49,6.12 2.98,12.6 1.13,18.62" /><path
         id="path136"
         style="fill:#4d4bb7;fill-opacity:1;fill-rule:nonzero;stroke:none"
         d="m 1064.8,495.59 c 1.4,-16.66 6.53,-32.07 19.23,-40.871 7.32,-5.071 16.49,-6.77 25.4,-7.11 24.39,-0.957 49.04,7.621 67.57,23.493 20.93,17.929 33.82,44.207 56.13,60.398 11.87,8.609 25.78,13.859 39.17,19.871 33.12,14.859 63.95,34.84 91.05,59 5.87,5.231 12.85,11.68 15.7,19.211 4.6,12.129 -0.23,25.82 -10.91,32.41 -6.58,4.067 -14.23,6 -21.85,7.36 -27.1,4.828 -54.92,3.109 -82.33,0.617 -34.89,-3.16 -70.04,-7.637 -102.82,-19.989 -14.23,-5.359 -27.94,-12.25 -40.48,-20.898 -4.74,-3.262 -11.62,-11.531 -17.25,-12.543 -2.02,-0.359 -15.42,4.352 -15.17,5.152 -7.69,-24.351 -15.41,-48.8 -19.64,-73.972 -2.4,-14.18 -5.34,-33.91 -3.8,-52.129" /><path
         id="path138"
         style="fill:#333333;fill-opacity:1;fill-rule:nonzero;stroke:none"
         d="m 1317.67,1788.65 c -1.34,9.5 -6.24,18.05 -10.71,26.55 -30.18,57.46 -43.89,121.46 -65.77,182.15 -10.55,29.29 -22.99,58.14 -40.18,84.19 -10.17,15.41 -38.31,56.62 -62.45,48.01 -3.45,-1.23 -6.21,-3.82 -8.85,-6.36 -44.22,-42.73 -80.89,-93.21 -108.17,-148.32 -27.849,-56.27 -40.513,-110.03 -40.688,-172.79 -0.137,-46.64 6.914,-93.35 21.528,-137.66 5.16,-15.65 11.21,-31.08 14.44,-47.24 3.41,-17.06 3.6,-34.59 3.79,-51.98 0.71,-67.79 1.41,-135.57 2.13,-203.35 0.33,-31.16 0.39,-62.43 2.57,-93.29 2.19,-30.9 2.72,-64.38 -6.05,-94.34 -9.24,-31.52 -15.26,-64.01 -19.22,-96.6 -10.419,-85.698 7.66,-172.03 25.63,-256.491 16.2,-76.117 32.41,-152.25 48.61,-228.379 0.95,-4.441 2.02,-9.129 5.18,-12.379 2.51,-2.582 6.03,-3.891 9.5,-4.891 20.87,-5.96 43.62,-2.3 63.47,6.469 19.87,8.77 37.19,22.352 53.49,36.692 4.3,3.781 8.63,7.75 11.23,12.851 6.46,12.707 0.44,27.879 -4.97,41.067 -48.41,118.113 -44.67,252.211 -15.29,376.431 10.05,42.47 22.98,84.38 28.81,127.63 0.44,3.24 0.66,6.53 0.61,9.8 l 0.2,0.64 c 46.41,191.36 69.88,387.45 90.73,583.25 0.64,6.1 1.29,12.27 0.43,18.34" /><path
         id="path140"
         style="fill:#8482ff;fill-opacity:1;fill-rule:nonzero;stroke:none"
         d="m 1668.91,690.402 c -27.71,1.239 -55.62,1.43 -83.16,-2.363 -20.86,-2.859 -44.13,-9.828 -60.1,-24.109 -10.78,-9.629 -19.07,-21.7 -26.68,-33.981 -20.79,-33.449 -59.12,-111.609 -3.76,-134.207 9.53,-3.89 20.24,-3.98 30.42,-2.433 35.1,5.363 65.26,28.941 100.22,35.121 12.99,2.289 26.27,2.121 39.45,2.48 47.18,1.289 95.49,10.192 135.24,35.66 19.12,12.25 31.51,30.09 36.88,52.332 7.29,30.219 -11.16,48.969 -39.08,55.348 -42.44,9.699 -85.94,14.211 -129.43,16.152" /><path
         id="path142"
         style="fill:#424242;fill-opacity:1;fill-rule:nonzero;stroke:none"
         d="m 1623.2,711.559 c -28.16,93.312 -42.3,190.851 -41.8,288.32 0.4,77.991 -10.22,159.981 -0.41,237.161 9.86,77.72 3.8,162.54 -10.09,239.57 -22.49,124.69 -77.48,242.88 -88.46,369.1 -4.14,47.56 -1.95,95.75 -10.21,142.78 -56.41,-29.15 -123.3,-37.43 -185.11,-22.91 -32.22,7.55 -62.56,20.97 -93.46,32.48 -12.89,5.37 -26.72,6.52 -39.77,11.27 -11.61,4.24 -19.3,11.27 -28.98,19.34 -48.85,-58.93 -77.91,-134 -81.46,-210.48 -2.69,-57.99 9.3,-116.54 34.08,-169.02 25.98,-55 67.95,-93.75 113.09,-133.32 43.55,-38.18 89.36,-75.41 120.79,-124.06 27.17,-42.05 41.68,-95.66 55.04,-143.46 15.1,-54.07 26.86,-109.43 29.4,-165.65 2.35,-51.87 -4.71,-99.821 4.36,-151.84 4.1,-23.59 9.8,-46.91 17.07,-69.75 26.5,-83.258 74.11,-163.129 71.1,-250.461 -0.14,-3.707 -0.25,-7.75 2.01,-10.68 1.73,-2.219 4.51,-3.34 7.2,-4.207 35.86,-11.523 75.27,4.117 105.21,26.988 10.3,7.852 20.25,17.02 25.11,29.012 7.67,18.93 1.19,40.27 -4.71,59.817" /><path
         id="path144"
         style="fill:#d9d9d9;fill-opacity:1;fill-rule:nonzero;stroke:none"
         d="m 981.652,2661.26 c -10.586,-57.24 -4.746,-120.21 6.27,-174.1 16.018,-78.34 38.428,-155.37 66.948,-230.07 11.62,-30.45 24.4,-61.1 27.01,-93.59 4.58,-57.05 -22.51,-111.38 -49.55,-161.84 -2.52,-4.7 -5.12,-9.75 -4.59,-15.07 0.44,-4.32 2.91,-8.14 5.4,-11.7 32.82,-46.75 82.55,-80.06 136.32,-99.33 53.78,-19.27 111.58,-25.21 168.7,-24.48 48.49,0.6 98.11,6.24 141.57,27.8 2.44,71.22 4.88,142.48 4.25,213.76 -0.61,67.01 -16.74,137.42 -0.78,203.59 5.78,23.93 15.69,46.68 21.94,70.49 6.65,25.37 9.08,51.85 7.15,78.01 -1.57,21.31 -7.74,44.93 -26.21,55.66 -5.77,3.34 -12.29,5.13 -18.19,8.23 -27.99,14.71 -34.76,54.09 -61.76,70.56 -9.77,5.96 -21.25,8.28 -32.27,11.36 -118.05,33.03 -207.2,178.02 -338.57,157.15 -7.03,-1.12 -14.28,-2.41 -20.17,-6.4 -6.35,-4.31 -10.35,-11.26 -13.71,-18.17 -9.355,-19.25 -15.746,-40.15 -19.758,-61.86" /><path
         id="path146"
         style="fill:#ffb78c;fill-opacity:1;fill-rule:nonzero;stroke:none"
         d="m 1039.45,2706.77 c -1.66,-3.26 -3.19,-6.58 -4.33,-10.06 -8.32,-25.38 15.31,-42.19 34.85,-53.02 31.47,-17.43 67.76,-25.2 103.72,-25.35 21.74,-0.09 43.42,2.54 64.67,7.05 8.19,1.74 13.83,1.93 17.94,9.31 4.82,8.61 5.39,19.35 5.92,28.96 1.17,21.73 1.76,43.49 2.35,65.25 0.92,33.71 1.83,67.41 2.75,101.13 0.38,14.23 -19.46,10.16 -30.03,11.52 -15.33,1.99 -30.64,4.2 -45.83,7.07 -30.11,5.68 -59.95,13.98 -87.36,27.91 -7.24,3.69 -18.79,12.55 -27.02,12.98 -10.29,0.54 -10.15,-13.08 -11.29,-21.37 -3.12,-22.94 -2.54,-46.17 -3.31,-69.25 -0.91,-27.05 -3.85,-54.76 -15.99,-78.94 -2.24,-4.45 -4.78,-8.76 -7.04,-13.19" /><path
         id="path148"
         style="fill:#ffe5cc;fill-opacity:1;fill-rule:nonzero;stroke:none"
         d="m 1324.96,3041.59 c 3.06,-4.9 6.15,-10.05 6.77,-15.8 0.6,-5.45 -1.09,-10.89 -1.11,-16.37 -0.09,-19.11 18.55,-31.96 33.7,-43.61 6,-4.61 12.32,-10.91 11.37,-18.42 -0.39,-3 -1.92,-5.72 -3.29,-8.43 -10.67,-21.21 -11.31,-45.32 -9.96,-68.53 0.86,-14.76 12.22,-54.24 -2.7,-63.7 -17.71,-11.21 -36.93,-20.04 -56.96,-26.17 -11.77,-3.61 -25.97,-6.39 -37.28,0.1 -9.73,5.57 -16.3,16.9 -25.11,24.22 -10.46,8.71 -24.54,-3.84 -35.82,-7.57 -14.73,-4.86 -30.06,-7.88 -45.52,-9.11 -30.02,-2.39 -60.62,1.92 -88.76,12.71 -18.01,6.92 -35.23,16.4 -49.42,29.48 -15.85,14.59 -27.44,33.15 -38.124,51.85 -14.285,25.02 -27.558,51.51 -30.625,80.16 -3.262,30.49 5.652,60.76 20.156,87.36 14.356,26.32 32.313,45.73 55.873,63.69 43.49,33.18 101.38,39.95 156.08,40.01 19.91,0.02 36.46,-1.62 54.62,-9.35 19.07,-8.11 34.61,-21.2 42.86,-39.91 9.91,-22.47 30.2,-41.73 43.25,-62.61" /><path
         id="path150"
         style="fill:#733118;fill-opacity:1;fill-rule:nonzero;stroke:none"
         d="m 1206.02,2900.16 c 6.52,11 16.96,19.16 30.52,26.53 28.56,15.51 33.72,50.89 37.37,79.64 4.7,37.01 3.82,78.51 -9.16,113.72 -11.9,32.29 -51.92,45.32 -82.72,49.11 -38.01,4.68 -77.32,0.46 -112.85,-13.87 -52.82,-21.29 -96.895,-71.07 -120.957,-121.63 -29.293,-61.56 -29.813,-125.39 -25.321,-191.71 1.512,-22.41 2.293,-38.11 17.95,-55.72 9.57,-10.78 21.718,-18.97 34.277,-26.05 68.431,-38.55 153.751,-45.72 227.651,-19.1 11.05,3.97 22.04,8.78 30.94,16.45 22,18.93 18.6,45.35 0.54,65.89 -9.25,10.52 -25.04,11.97 -32.1,25.24 -3.31,6.22 -3.85,13.53 -3.83,20.58 0.05,12.55 2.74,22.55 7.69,30.92" /><path
         id="path152"
         style="fill:#8482ff;fill-opacity:1;fill-rule:nonzero;stroke:none"
         d="m 2106.06,3162.41 -347.86,200.83 c -10.97,6.35 -20.92,6.93 -28.11,2.75 l -45.55,-26.47 c 7.18,4.18 17.13,3.59 28.12,-2.75 l 347.85,-200.83 c 21.81,-12.59 39.43,-43.12 39.36,-68.12 l -1.06,-375.32 c -0.04,-12.41 -4.42,-21.15 -11.5,-25.26 l 45.54,26.47 c 7.08,4.11 11.48,12.85 11.51,25.26 l 1.06,375.32 c 0.08,25 -17.55,55.53 -39.36,68.12" /><path
         id="path154"
         style="fill:#4d4bb7;fill-opacity:1;fill-rule:nonzero;stroke:none"
         d="m 2060.51,3135.94 c 21.81,-12.59 39.43,-43.12 39.36,-68.12 l -1.06,-375.32 c -0.07,-24.99 -17.81,-35.1 -39.63,-22.51 l -347.85,200.83 c -21.81,12.59 -39.43,43.12 -39.36,68.12 l 1.06,375.32 c 0.08,24.99 17.81,35.11 39.63,22.51 l 347.85,-200.83" /><path
         id="path156"
         style="fill:#ffffff;fill-opacity:1;fill-rule:nonzero;stroke:none"
         d="m 1847.03,2959.18 v 114.3 l 86.27,-106.99 z m 27.05,170.12 c -61.22,35.34 -110.8,7.08 -110.8,-63.18 0,-70.19 49.58,-155.75 110.8,-191.1 61.18,-35.32 110.8,-7.03 110.8,63.17 0,70.25 -49.62,155.79 -110.8,191.11" /><path
         id="path158"
         style="fill:#ffe5cc;fill-opacity:1;fill-rule:nonzero;stroke:none"
         d="m 1522.58,2334.13 c 109.88,-9.46 220.46,-1.34 330.34,8.13 l 1.6,0.22 c 27.71,2.68 34.09,25.98 44.96,47.73 9.74,19.46 18.44,39.41 26.97,59.43 45.77,107.55 85.97,217.45 121.01,328.97 6.37,9.87 16.84,16.82 26.16,24.29 38,30.46 69,69.59 89.96,113.55 6.71,14.06 12.32,30.96 4.95,44.69 -2.3,4.27 -5.74,7.92 -7.43,12.46 -2.03,5.4 -1.36,11.48 -3.06,16.99 -3.86,12.46 -18.33,18.53 -24.45,30.04 -2.45,4.57 -4.02,10.44 -8.87,12.28 -4.01,1.51 -8.62,-0.66 -11.36,-3.94 -2.75,-3.29 -4.1,-7.47 -5.65,-11.46 -8.91,-22.81 -26.74,-42 -48.84,-52.55 -4.25,-2.04 -9.55,-3.69 -13.45,-1.01 6.8,10.86 11.81,22.82 14.81,35.28 1.72,7.21 2.73,15.07 -0.31,21.84 -3.02,6.76 -11.42,11.57 -18.1,8.35 -6.55,-3.14 -8.14,-11.51 -9.74,-18.6 -2.67,-11.83 -7.61,-23.15 -14.45,-33.16 -7.11,-10.39 -16.21,-19.32 -23.16,-29.82 -5.86,-8.87 -10.08,-18.72 -13.06,-28.9 -5.4,-18.43 -7.29,-38.13 -7.78,-57.26 -0.26,-10.19 -1.53,-20.78 -3.6,-31.22 -0.42,-1.09 -0.87,-2.18 -1.26,-3.25 -11.48,-31.55 -165.44,-322.13 -187.75,-355.84 -6.55,0.07 -13.01,0.2 -19.12,0.92 -72.71,8.45 -146.07,20.27 -212.88,50.15 -33.82,15.13 -65.82,34.81 -101.32,45.4 -35.5,10.59 -76.75,10.71 -106.6,-11.23 -23.82,-17.5 -35.99,-45.8 -41.77,-73.99 -22.33,-108.73 115.78,-136.04 194.2,-145.51 9.66,-1.17 19.34,-2.15 29.05,-2.98" /><path
         id="path160"
         style="fill:#f2f2f2;fill-opacity:1;fill-rule:nonzero;stroke:none"
         d="m 1639.87,2421.59 c 0.36,-37.72 -8.92,-73.55 -26.74,-106.75 -6.4,-11.89 -12.84,-16.26 -26.99,-16.01 -10.07,0.18 -20.1,1.41 -30.08,2.78 -56.29,7.75 -111.95,20.1 -166.22,36.89 -25.9,8 -48.04,13.8 -70.98,29.14 -12.53,8.38 -23.58,19.12 -31.44,32.04 -12.83,21.12 -17.4,46.36 -12.74,70.63 8.4,43.79 38.26,84.21 80,101.3 5.49,2.24 11.14,4.11 16.96,5.23 12.04,2.32 24.48,1.39 36.62,-0.4 34.48,-5.07 67.56,-16.85 100.36,-28.63 34.77,-12.48 69.52,-25.02 104.23,-37.62 15.17,-5.51 16.05,-18.69 19.87,-32.66 5.01,-18.34 6.97,-36.95 7.15,-55.94" /><path
         id="path162"
         style="fill:#ffe5cc;fill-opacity:1;fill-rule:nonzero;stroke:none"
         d="m 1642.25,3183.72 c -9.52,-6.05 -19.87,-11.36 -27.13,-19.99 -10.66,-12.65 -12.97,-30.53 -10.91,-46.93 0.91,-7.17 2.64,-14.45 6.8,-20.36 4.16,-5.91 11.16,-10.22 18.36,-9.54 6.71,0.64 12.35,5.34 16.54,10.61 4.44,5.59 7.77,12.06 9.74,18.92 3.96,13.78 2.68,29.49 10.85,41.27 3.74,5.39 9.11,9.39 14.08,13.66 6.27,5.39 12.06,11.41 16.66,18.28 3.32,4.95 6.03,10.41 7.08,16.27 1.03,5.87 0.29,12.19 -2.88,17.23 -8.78,13.96 -20.16,-6.01 -26,-12.15 -9.9,-10.39 -21.07,-19.58 -33.19,-27.27" /><path
         id="path164"
         style="fill:#ffb78c;fill-opacity:1;fill-rule:nonzero;stroke:none"
         d="m 3108.55,1936.04 c 64.58,-15.18 129.17,-30.35 193.76,-45.51 38.72,-9.1 77.67,-18.27 114.23,-33.95 36.55,-15.68 70.95,-38.39 94.76,-70.24 1.36,-1.81 2.71,-4.3 1.44,-6.16 -0.8,-1.19 -2.36,-1.58 -3.77,-1.87 -49.96,-10.17 -100.77,-20.41 -151.56,-15.83 -39.1,3.54 -76.93,15.78 -113.27,30.67 -40.48,16.6 -79.58,36.57 -116.74,59.65 -29.56,18.36 -58.88,39.78 -75.41,70.4 -1.98,3.68 -3.8,7.93 -2.54,11.91 1.05,3.32 4.01,5.61 6.92,7.53 8.32,5.48 15.69,10.92 24.53,4.72 8.5,-5.95 17.59,-8.97 27.65,-11.32" /><path
         id="path166"
         style="fill:#ffe5cc;fill-opacity:1;fill-rule:nonzero;stroke:none"
         d="m 3916.2,1520.48 c 0,-88.85 -62.63,-197.2 -140.25,-241.72 -39.2,-22.65 -74.66,-24.62 -100.08,-9.45 l -1.57,0.79 c -46.29,27.58 -99.68,42.94 -152.28,51.81 -73.47,12.21 -148.53,12.02 -222.99,17.53 -31.92,2.36 -64.22,5.91 -94.16,17.53 -34.09,13 -63.44,35.66 -91.02,59.69 -23.84,20.68 -46.89,42.75 -69.74,64.61 -68.15,65.41 -136.32,130.81 -204.67,196.02 -7.68,7.67 -16.55,15.55 -22.46,24.62 -5.71,8.67 -2.36,21.47 2.17,29.94 4.92,9.06 12.61,16.35 20.49,22.85 l 1.18,0.98 c 0.99,1.19 1.77,2.56 1.38,3.95 l -1.57,1.57 -1.19,0.99 -0.2,0.19 c -15.96,13 -31.71,25.8 -47.67,38.62 -9.85,7.88 -20.29,16.74 -23.05,29.15 -2.56,11.23 2.37,23.44 10.84,31.33 4.14,3.74 9.06,6.69 14.38,8.46 2.16,0.79 4.13,0.99 6.11,0.99 3.74,0 7.28,-0.6 11.03,0.39 -7.88,5.71 -15.76,11.43 -23.64,16.94 l -0.4,0.2 c -7.29,5.52 -14.57,10.63 -21.86,15.96 -8.28,6.1 -15.56,14.58 -16.36,25.21 -1.18,15.57 9.66,30.93 23.26,37.43 18.51,9.06 43.52,1.18 60.87,-9.66 1.97,-1.18 3.74,-2.56 5.51,-3.74 -1.77,1.38 -3.36,6.11 -4.72,8.08 -1.98,3.15 -4.34,6.1 -6.51,9.06 -1.18,1.57 -2.36,2.96 -3.54,4.53 -3.56,4.34 -6.9,8.87 -9.86,13.6 -7.28,12.2 -12.99,27.18 -4.53,40.38 6.51,10.05 19.11,14.58 30.93,14.77 13.79,0.39 26.99,-3.54 39.99,-7.88 46.5,-15.16 91.99,-32.89 136.32,-52.99 20.49,-9.25 40.58,-18.72 59.3,-30.92 19.5,-12.81 36.44,-28.18 54.36,-42.75 57.92,-46.88 130.61,-75.06 204.87,-79.2 35.86,-1.96 72.1,1.38 107.37,-4.92 36.05,-6.5 69.54,-22.66 102.44,-39 53.97,-27.19 215.7,-115.25 320.51,-171.19 5.11,-2.76 10.24,-5.32 14.97,-7.89 22.45,-15.55 36.04,-45.49 36.04,-86.86" /><path
         id="path168"
         style="fill:#ffb78c;fill-opacity:1;fill-rule:nonzero;stroke:none"
         d="m 3916.2,1520.48 c 0,-88.85 -62.63,-197.2 -140.25,-241.72 -39.2,-22.65 -74.66,-24.62 -100.08,-9.45 l -1.57,0.79 c -23.84,14.97 -38.42,45.51 -38.42,88.45 0,88.84 62.65,197.19 140.07,241.91 33.88,19.5 65,23.63 89.24,14.77 5.31,-1.97 10.24,-4.54 14.97,-7.89 22.45,-15.55 36.04,-45.49 36.04,-86.86" /><path
         id="path170"
         style="fill:#ffb78c;fill-opacity:1;fill-rule:nonzero;stroke:none"
         d="m 2814.3,2028.78 c -4.77,-6.03 -6.62,-13.92 -6.93,-21.6 -0.12,-2.88 -0.03,-5.81 0.82,-8.57 0.95,-3.06 2.82,-5.77 4.78,-8.32 9.9,-12.81 22.88,-22.88 36.16,-32.13 9.38,12.95 10.79,29.85 11.89,45.8 0.08,1.1 0.14,2.22 -0.18,3.28 -0.31,0.96 -0.94,1.8 -1.55,2.61 -4.9,6.45 -9.81,12.9 -14.71,19.35 -4.05,5.33 -6.74,8.68 -13.54,8 -6.69,-0.68 -12.44,-2.99 -16.74,-8.42" /><path
         id="path172"
         style="fill:#ffb78c;fill-opacity:1;fill-rule:nonzero;stroke:none"
         d="m 2750.15,1936.18 c -1.4,-5.7 -0.94,-11.7 -0.09,-17.51 0.48,-3.3 1.15,-6.74 3.26,-9.3 1.47,-1.78 3.49,-2.99 5.49,-4.13 14.55,-8.27 30.25,-14.52 46.51,-18.51 4.18,12.18 4.62,25.27 5.02,38.14 0.06,1.75 0.1,3.56 -0.55,5.18 -0.47,1.16 -1.28,2.16 -2.11,3.12 -8.37,9.63 -19.76,16.59 -32.11,19.76 -6.38,1.64 -9.89,2.83 -15.41,-1.46 -4.88,-3.82 -8.54,-9.25 -10.01,-15.29" /><path
         id="path174"
         style="fill:#ffb78c;fill-opacity:1;fill-rule:nonzero;stroke:none"
         d="m 2772.14,1834.07 c -1.47,-4.86 -2.81,-10.16 -1.02,-14.91 1.15,-3.04 3.44,-5.47 5.73,-7.75 13.4,-13.44 28.67,-25.31 46.09,-32.84 1.09,8.23 2.12,16.52 1.57,24.81 -0.54,8.28 -2.78,16.64 -7.7,23.33 -6.1,8.28 -15.52,13.04 -24.95,16.48 -3.13,1.15 -9.29,4.56 -12.62,3.38 -4.06,-1.44 -6.02,-8.91 -7.1,-12.5" /><path
         id="path176"
         style="fill:#ffb78c;fill-opacity:1;fill-rule:nonzero;stroke:none"
         d="m 2825.56,1700.03 c 10.65,-7.26 21.3,-14.51 31.95,-21.77 l 1.76,-0.48 0.84,1.83 c 0.54,8.3 1.01,16.95 -2.2,24.63 -2.69,6.43 -7.69,11.47 -12.77,16.09 -4.78,4.35 -10.16,10.08 -16.56,11.86 -10.82,3.03 -19.78,-7.29 -16.48,-17.77 2.03,-6.43 8.16,-10.78 13.46,-14.39" /><path
         id="path178"
         style="fill:#ffb78c;fill-opacity:1;fill-rule:nonzero;stroke:none"
         d="m 3148.46,1447.98 c -35.85,15.18 -64.02,43.74 -91.21,71.71 -42.75,43.53 -85.3,87.26 -127.84,130.99 -15.97,16.36 -32.12,32.71 -45.91,51.03 -14.57,19.11 -26.4,38.02 -42.75,53.97 0.99,1.19 1.78,2.56 1.38,3.95 l -1.57,1.57 -1.18,0.99 c 20.49,-12.02 37.03,-30.93 52.4,-48.46 38.6,-44.73 75.84,-90.62 118,-131.8 45.9,-45.1 97.51,-84.7 138.68,-133.95" /><path
         id="path180"
         style="fill:#ffb78c;fill-opacity:1;fill-rule:nonzero;stroke:none"
         d="m 3123.05,1568.15 c -40.59,29.74 -74.46,67.17 -108.16,104.4 -28.56,31.72 -56.93,63.24 -85.48,94.76 -12.22,13.59 -24.44,27.18 -38.23,39.2 -12.8,11.23 -26.78,20.88 -40.77,30.53 -15.56,10.65 -30.93,22.66 -47.28,31.92 -1.18,0.58 -2.37,1.18 -3.35,1.97 3.75,0 7.29,-0.6 11.03,0.39 -7.88,5.71 -15.76,11.43 -23.64,16.94 37.63,-17.53 73.09,-45.9 102.83,-74.26 15.57,-14.78 30.14,-30.54 44.72,-46.5 62.05,-66.97 124.89,-133.55 188.33,-199.35" /><path
         id="path182"
         style="fill:#ffb78c;fill-opacity:1;fill-rule:nonzero;stroke:none"
         d="m 3139.79,1708.21 c -22.65,11.63 -40.98,29.75 -59.5,47.08 -58.1,55.16 -120.36,106.19 -185.76,152.67 -20.29,14.38 -41.96,28.56 -59.49,46.49 -0.79,0.99 -1.78,1.98 -2.36,2.95 1.97,-1.18 3.74,-2.56 5.52,-3.74 -1.78,1.38 -3.35,6.11 -4.73,8.08 -1.97,3.15 -4.34,6.1 -6.51,9.06 -1.18,1.57 -2.36,2.96 -3.54,4.53 5.91,-3.93 11.82,-7.88 17.53,-12.02 54.57,-38.21 104.4,-82.14 154.05,-126.27 18.13,-16.15 36.24,-32.3 54.17,-48.26 30.34,-26.99 60.48,-53.78 90.62,-80.57" /><path
         id="path184"
         style="fill:#ffb78c;fill-opacity:1;fill-rule:nonzero;stroke:none"
         d="m 3235.1,1695.2 c 5.56,-0.58 11.17,-0.6 16.74,-0.06 2.8,0.27 5.72,0.74 7.96,2.45 1.89,1.45 3.08,3.65 3.89,5.9 2.71,7.44 1.8,15.88 -1.27,23.17 -8.04,19.16 -37.64,46.52 -55.54,22.52 -16.25,-21.78 4.47,-51.49 28.22,-53.98" /><path
         id="path186"
         style="fill:#ffb78c;fill-opacity:1;fill-rule:nonzero;stroke:none"
         d="m 3193.53,1536.09 c 3.35,-0.3 6.8,-0.33 9.99,0.77 7.17,2.47 11.41,10.63 10.68,18.18 -2.34,23.96 -44.46,36.25 -61.11,20.21 -21.58,-20.79 25.28,-37.79 40.44,-39.16" /><path
         id="path188"
         style="fill:#ffb78c;fill-opacity:1;fill-rule:nonzero;stroke:none"
         d="m 3194.31,1434.73 c 10.89,4.87 -10.57,58.86 -35.43,38.49 -6.48,-5.31 -11.24,-14.16 -6.58,-22 4.99,-8.42 32.63,-20.69 42.01,-16.49" /><path
         id="path190"
         style="fill:#ffb78c;fill-opacity:1;fill-rule:nonzero;stroke:none"
         d="m 3190.78,1383.66 c 0.73,0.81 0.96,1.96 1,3.04 0.5,12.6 -29.44,34.67 -34.58,16.67 -1.5,-5.23 1.18,-12.92 5.16,-16.43 4.26,-3.77 24.26,-7.92 28.42,-3.28" /><path
         id="path192"
         style="fill:#4d4d4d;fill-opacity:1;fill-rule:nonzero;stroke:none"
         d="m 3751.4,3758.71 c -56.92,32.86 -108.55,35.92 -145.83,14.24 l -58.88,-34.21 c 37.3,21.67 88.93,18.62 145.84,-14.24 113.24,-65.38 204.67,-223.75 204.31,-353.87 -0.19,-64.51 -22.97,-109.93 -59.74,-131.29 l 58.87,34.21 c 36.77,21.37 59.55,66.78 59.73,131.29 0.38,130.13 -91.06,288.49 -204.3,353.87" /><path
         id="path194"
         style="fill:#000000;fill-opacity:1;fill-rule:nonzero;stroke:none"
         d="m 3692.53,3724.49 c 113.24,-65.37 204.67,-223.74 204.31,-353.86 -0.37,-129.92 -92.4,-182.36 -205.64,-116.98 -113.06,65.28 -204.67,223.74 -204.3,353.65 0.37,130.13 92.57,182.47 205.63,117.19" /><path
         id="path196"
         style="fill:#ffffff;fill-opacity:1;fill-rule:nonzero;stroke:none"
         d="m 3666.54,3431.5 v 132.93 l 100.33,-124.42 z m 31.47,197.84 c -71.19,41.11 -128.85,8.23 -128.85,-73.46 0,-81.63 57.66,-181.14 128.85,-222.25 71.13,-41.06 128.85,-8.16 128.85,73.47 0,81.7 -57.72,181.17 -128.85,222.24" /><path
         id="path198"
         style="fill:#ffd166;fill-opacity:1;fill-rule:nonzero;stroke:none"
         d="m 3849.45,3070.01 -192.51,111.15 c -30.26,17.47 -57.68,19.08 -77.47,7.58 l -58.86,-34.21 c 19.78,11.5 47.19,9.88 77.46,-7.58 l 192.52,-111.16 c 59.91,-34.58 108.45,-118.68 108.26,-187.52 l -0.63,-221.43 c -0.09,-34.2 -12.2,-58.27 -31.7,-69.61 l 58.86,34.21 c 19.51,11.33 31.61,35.42 31.71,69.62 l 0.64,221.43 c 0.19,68.83 -48.36,152.93 -108.28,187.52" /><path
         id="path200"
         style="fill:#ffad66;fill-opacity:1;fill-rule:nonzero;stroke:none"
         d="m 3790.59,3035.79 c 59.91,-34.59 108.45,-118.68 108.26,-187.52 l -0.63,-221.43 c -0.19,-68.84 -49.06,-96.68 -108.97,-62.1 l -192.52,111.15 c -60.09,34.7 -108.64,118.79 -108.45,187.63 l 0.64,221.43 c 0.19,68.84 49.06,96.69 109.15,62 l 192.52,-111.16" /><path
         id="path202"
         style="fill:#ffffff;fill-opacity:1;fill-rule:nonzero;stroke:none"
         d="m 3666.54,2802.44 v 132.93 l 100.33,-124.42 z m 31.47,197.84 c -71.19,41.1 -128.85,8.24 -128.85,-73.46 0,-81.63 57.66,-181.14 128.85,-222.25 71.13,-41.07 128.85,-8.16 128.85,73.46 0,81.7 -57.72,181.18 -128.85,222.25" /><path
         id="path204"
         style="fill:#8482ff;fill-opacity:1;fill-rule:nonzero;stroke:none"
         d="m 3935.07,2340.87 -360.52,208.14 c -6.81,3.94 -13.05,4.31 -17.57,1.69 l -58.87,-34.21 c 4.51,2.62 10.75,2.25 17.58,-1.69 l 360.51,-208.14 c 13.68,-7.9 24.67,-26.93 24.63,-42.66 l -1.17,-414.26 c -0.03,-7.69 -2.75,-13.12 -7.15,-15.68 l 58.87,34.21 c 4.4,2.56 7.13,7.99 7.15,15.68 l 1.17,414.26 c 0.05,15.73 -10.94,34.76 -24.63,42.66" /><path
         id="path206"
         style="fill:#4d4bb7;fill-opacity:1;fill-rule:nonzero;stroke:none"
         d="m 3876.2,2306.66 c 13.68,-7.9 24.67,-26.93 24.63,-42.66 l -1.17,-414.26 c -0.05,-15.53 -11.1,-21.83 -24.79,-13.93 l -360.52,208.15 c -13.51,7.8 -24.67,26.93 -24.63,42.46 l 1.17,414.25 c 0.05,15.73 11.28,21.93 24.8,14.13 l 360.51,-208.14" /><path
         id="path208"
         style="fill:#ffffff;fill-opacity:1;fill-rule:nonzero;stroke:none"
         d="m 3666.54,2125.97 v 132.93 l 100.33,-124.42 z m 31.47,197.83 c -71.19,41.11 -128.85,8.24 -128.85,-73.46 0,-81.62 57.66,-181.14 128.85,-222.24 71.13,-41.07 128.85,-8.17 128.85,73.46 0,81.7 -57.72,181.18 -128.85,222.24" /><path
         id="path210"
         style="fill:#231f20;fill-opacity:1;fill-rule:evenodd;stroke:none"
         d="m 3835.19,1801.72 v 27.33 l -37.99,21.94 v -27.34 l 37.99,-21.93" /><path
         id="path212"
         style="fill:#231f20;fill-opacity:1;fill-rule:evenodd;stroke:none"
         d="m 3903.32,1762.38 v 27.34 l -37.99,21.92 v -27.32 l 37.99,-21.94" /><path
         id="path214"
         style="fill:#231f20;fill-opacity:1;fill-rule:evenodd;stroke:none"
         d="m 3975.19,1721.32 -11.53,33.55 -33.07,19.11 4.11,-29.71 c 13.55,-7.82 27.18,-15.76 40.49,-22.95" /><path
         id="path216"
         style="fill:#231f20;fill-opacity:1;fill-rule:evenodd;stroke:none"
         d="m 3630.53,1919.88 v 27.33 l -37.99,21.93 v -27.32 l 37.99,-21.94" /><path
         id="path218"
         style="fill:#231f20;fill-opacity:1;fill-rule:evenodd;stroke:none"
         d="m 3698.66,1880.55 v 27.32 l -37.98,21.94 v -27.33 l 37.98,-21.93" /><path
         id="path220"
         style="fill:#231f20;fill-opacity:1;fill-rule:evenodd;stroke:none"
         d="m 3766.57,1841.34 v 27.32 l -37.98,21.94 v -27.33 l 37.98,-21.93" /><path
         id="path222"
         style="fill:#231f20;fill-opacity:1;fill-rule:evenodd;stroke:none"
         d="m 3442.32,2082.21 22.74,3.53 -0.08,38.01 -23.81,5.02 c 0.07,-15.6 0.37,-31.1 1.15,-46.56" /><path
         id="path224"
         style="fill:#231f20;fill-opacity:1;fill-rule:evenodd;stroke:none"
         d="m 3489.35,2002.57 14.3,17.92 c -11.04,6.46 -21.89,18.57 -29.09,32.32 l -20.06,-10.46 c 8.78,-16.66 21.72,-31.44 34.85,-39.78" /><path
         id="path226"
         style="fill:#231f20;fill-opacity:1;fill-rule:evenodd;stroke:none"
         d="m 3561.44,1959.78 1.35,26.54 -33.08,19.1 -8.93,-22.12 40.66,-23.52" /><path
         id="path228"
         style="fill:#231f20;fill-opacity:1;fill-rule:evenodd;stroke:none"
         d="m 3441.16,2323.11 23.82,-13.75 v 43.6 l -23.82,13.75 v -43.6" /><path
         id="path230"
         style="fill:#231f20;fill-opacity:1;fill-rule:evenodd;stroke:none"
         d="m 3441.16,2244.93 23.82,-13.75 v 43.59 l -23.82,13.75 v -43.59" /><path
         id="path232"
         style="fill:#231f20;fill-opacity:1;fill-rule:evenodd;stroke:none"
         d="m 3441.16,2166.4 23.82,-12.05 v 42.5 l -23.82,13.74 v -44.19" /><path
         id="path234"
         style="fill:#231f20;fill-opacity:1;fill-rule:evenodd;stroke:none"
         d="m 3441.16,2557.96 23.82,-13.75 v 39.54 l -23.82,20.01 v -45.8" /><path
         id="path236"
         style="fill:#231f20;fill-opacity:1;fill-rule:evenodd;stroke:none"
         d="m 3441.16,2479.77 23.82,-13.75 v 43.6 l -23.82,13.75 v -43.6" /><path
         id="path238"
         style="fill:#231f20;fill-opacity:1;fill-rule:evenodd;stroke:none"
         d="m 3441.16,2401.85 23.82,-13.75 v 43.59 l -23.82,13.75 v -43.59" /><path
         id="path240"
         style="fill:#231f20;fill-opacity:1;fill-rule:evenodd;stroke:none"
         d="m 3542.03,2658.31 4.97,-30.2 34.78,-20.08 v 27.33 l -39.75,22.95" /><path
         id="path242"
         style="fill:#231f20;fill-opacity:1;fill-rule:evenodd;stroke:none"
         d="m 3470.9,2692.79 17.27,-34.65 c 10.18,-0.19 21.7,-9.03 32.58,-14.88 l -10.88,33.32 c -13.24,6.75 -26.78,16.28 -38.97,16.21" /><path
         id="path244"
         style="fill:#231f20;fill-opacity:1;fill-rule:evenodd;stroke:none"
         d="m 3441.52,2640.99 23.46,-26.64 c 0.05,6.3 -0.12,12.73 0.12,18.91 0.33,6.12 1.85,11.47 4.4,15.59 l -21.22,32.58 c -3.21,-4.85 -5.21,-11.12 -5.88,-18.23 -0.57,-7.18 -0.64,-14.69 -0.88,-22.21" /><path
         id="path246"
         style="fill:#231f20;fill-opacity:1;fill-rule:evenodd;stroke:none"
         d="m 3748.45,2539.13 v -27.33 l 37.99,-21.93 v 27.33 l -37.99,21.93" /><path
         id="path248"
         style="fill:#231f20;fill-opacity:1;fill-rule:evenodd;stroke:none"
         d="m 3680.31,2578.47 v -27.33 l 37.99,-21.93 v 27.32 l -37.99,21.94" /><path
         id="path250"
         style="fill:#231f20;fill-opacity:1;fill-rule:evenodd;stroke:none"
         d="m 3612.4,2617.68 v -27.33 l 37.99,-21.94 v 27.33 l -37.99,21.94" /><path
         id="path252"
         style="fill:#231f20;fill-opacity:1;fill-rule:evenodd;stroke:none"
         d="m 3955.96,2419.3 -8.08,-22.64 c 11.02,-6.46 22.05,-12.51 33.07,-19.31 l 14.93,17.33 c -13.07,8.72 -26.38,16.61 -39.92,24.62" /><path
         id="path254"
         style="fill:#231f20;fill-opacity:1;fill-rule:evenodd;stroke:none"
         d="m 3884.97,2460.31 v -27.33 l 36.66,-21.16 2.06,26.14 -38.72,22.35" /><path
         id="path256"
         style="fill:#231f20;fill-opacity:1;fill-rule:evenodd;stroke:none"
         d="m 3817.06,2499.52 v -27.33 l 37.99,-21.93 v 27.32 l -37.99,21.94" /><path
         id="path258"
         style="fill:#231f20;fill-opacity:1;fill-rule:evenodd;stroke:none"
         d="m 4040.15,2194.24 -23.82,13.75 v -43.58 l 23.82,-13.75 v 43.58" /><path
         id="path260"
         style="fill:#231f20;fill-opacity:1;fill-rule:evenodd;stroke:none"
         d="m 4040.11,2275.83 -23.78,4.14 v -37.95 l 23.82,-12.87 -0.04,46.68" /><path
         id="path262"
         style="fill:#231f20;fill-opacity:1;fill-rule:evenodd;stroke:none"
         d="m 4024.24,2362.23 -19.6,-11.28 c 7.97,-13.44 12.12,-28.68 11.69,-41.08 l 22.95,2.61 c -0.09,15.09 -5.39,33.43 -15.04,49.75" /><path
         id="path264"
         style="fill:#231f20;fill-opacity:1;fill-rule:evenodd;stroke:none"
         d="m 4040.15,1959.41 -23.82,13.74 v -43.59 l 23.82,-13.75 v 43.6" /><path
         id="path266"
         style="fill:#231f20;fill-opacity:1;fill-rule:evenodd;stroke:none"
         d="m 4040.15,2037.58 -23.82,13.75 v -43.58 l 23.82,-13.75 v 43.58" /><path
         id="path268"
         style="fill:#231f20;fill-opacity:1;fill-rule:evenodd;stroke:none"
         d="m 4040.15,2115.51 -23.82,13.75 v -43.59 l 23.82,-13.75 v 43.59" /><path
         id="path270"
         style="fill:#231f20;fill-opacity:1;fill-rule:evenodd;stroke:none"
         d="m 4035.03,1721.97 -21.64,32.06 c -4.15,-9.36 -12.9,-13.72 -23.31,-11.85 l 16.67,-34.7 c 12.43,-1.79 22.99,3.5 28.28,14.49" /><path
         id="path272"
         style="fill:#231f20;fill-opacity:1;fill-rule:evenodd;stroke:none"
         d="m 4040.15,1800.83 -23.82,19.14 v -37.96 l 23.35,-27.31 c 0.49,14.96 0.49,30.56 0.47,46.13" /><path
         id="path274"
         style="fill:#231f20;fill-opacity:1;fill-rule:evenodd;stroke:none"
         d="m 4040.15,1880.67 -23.82,13.75 v -43.6 l 23.82,-13.75 v 43.6" /><path
         id="path276"
         style="fill:#ffd166;fill-opacity:1;fill-rule:nonzero;stroke:none"
         d="m 691.699,2657.2 37.883,-22.01 c -41.902,-22.66 -69.68,-23.51 -87.941,-12.9 l -37.883,22.01 c 18.265,-10.61 46.039,-9.76 87.941,12.9" /><path
         id="path278"
         style="fill:#ffd166;fill-opacity:1;fill-rule:nonzero;stroke:none"
         d="m 522.395,2579.37 -37.879,22.01 c -23.993,13.94 -47.821,37.51 -70.09,74.46 l 37.879,-22.01 c 22.273,-36.95 46.101,-60.52 70.09,-74.46" /><path
         id="path280"
         style="fill:#ffd166;fill-opacity:1;fill-rule:nonzero;stroke:none"
         d="m 292.91,3040.95 376.809,217.54 c 15.965,9.22 30.398,10.1 40.808,4.06 l 37.883,-22.02 c -10.41,6.05 -24.844,5.17 -40.82,-4.05 L 330.797,3018.93 c -31.57,-18.23 -57.227,-62.46 -57.121,-98.94 l 0.855,-303.04 c 0.051,-17.97 6.418,-30.61 16.66,-36.56 l -37.878,22.02 c -10.247,5.95 -16.606,18.58 -16.661,36.56 l -0.859,303.04 c -0.102,36.47 25.551,80.71 57.117,98.94" /><path
         id="path282"
         style="fill:#ffad66;fill-opacity:1;fill-rule:nonzero;stroke:none"
         d="m 330.797,3018.93 c -31.57,-18.23 -57.227,-62.46 -57.121,-98.94 l 0.855,-303.04 c 0.106,-36.28 25.926,-50.8 57.496,-32.57 l 120.286,69.45 c 71.605,-118.83 159.339,-99.27 216.683,-66.16 36.414,21.02 59.375,46.19 60.586,47.51 -129.562,-70.06 -124.109,68.37 -119.758,109.59 l 99.004,57.15 c 31.738,18.33 57.231,62.48 57.121,98.75 l -0.859,303.04 c -0.11,36.48 -25.75,51.09 -57.5,32.77 L 330.797,3018.93" /><path
         id="path284"
         style="fill:#ffffff;fill-opacity:1;fill-rule:nonzero;stroke:none"
         d="m 435.418,2770.84 c 37.676,21.74 68.113,74.47 67.992,117.76 -0.121,43.26 -30.762,60.68 -68.437,38.94 -37.641,-21.74 -68.086,-74.43 -67.965,-117.69 0.125,-43.29 30.765,-60.75 68.41,-39.01 z m -96.813,9.21 c -0.472,4.1 -0.734,8.43 -0.746,12.97 -0.015,4.47 0.219,9.09 0.672,13.72 l -16.414,-3.36 c -2.441,-0.49 -3.781,1.72 -3.015,4.97 l 8.711,36.13 c 0.617,2.61 2.421,5.08 4.359,6.2 l 1.437,0.56 16.387,3.35 c 3.805,10.02 8.387,19.91 13.649,29.49 l -10.207,10.13 c -1.516,1.54 -1.036,5.13 0.996,8.05 l 22.957,32.44 c 0.812,1.17 1.765,2.05 2.714,2.6 1.418,0.82 2.833,0.87 3.739,-0.05 l 10.148,-10.17 c 6.969,7.72 14.34,14.79 22.082,21 l -0.051,19.8 c -0.011,2.94 2.051,6.52 4.614,8 l 28.379,16.38 c 2.562,1.48 4.636,0.3 4.648,-2.65 l 0.055,-19.8 c 7.758,2.74 15.144,4.19 22.101,4.52 l 10.086,21.85 c 0.903,1.97 2.297,3.53 3.715,4.35 0.945,0.55 1.902,0.77 2.734,0.55 l 23.032,-5.9 c 2.078,-0.55 2.578,-3.56 1.07,-6.85 l -10.113,-21.86 c 5.297,-3.49 9.922,-8.07 13.742,-13.68 l 16.348,15.55 1.453,1.11 c 1.953,1.13 3.769,0.75 4.394,-1.15 l 8.887,-25.96 c 0.781,-2.36 -0.535,-6.11 -2.973,-8.44 l -16.382,-15.57 c 0.445,-4.12 0.734,-8.43 0.746,-12.9 0.015,-4.54 -0.254,-9.17 -0.672,-13.78 l 16.418,3.36 c 2.437,0.48 3.777,-1.73 3.011,-4.98 l -8.711,-36.13 c -0.617,-2.58 -2.433,-5.08 -4.39,-6.21 l -1.438,-0.56 -16.386,-3.35 c -3.774,-10 -8.352,-19.86 -13.618,-29.47 l 10.207,-10.14 c 1.516,-1.54 1.036,-5.13 -1.027,-8.06 l -22.926,-32.42 c -0.816,-1.17 -1.765,-2.05 -2.707,-2.6 -1.425,-0.82 -2.832,-0.86 -3.746,0.04 l -10.176,10.19 c -6.937,-7.73 -14.312,-14.8 -22.054,-21.01 l 0.058,-19.77 c 0.004,-2.98 -2.054,-6.52 -4.621,-8 l -28.379,-16.38 c -2.562,-1.48 -4.636,-0.33 -4.648,2.65 l -0.055,19.77 c -7.758,-2.74 -15.144,-4.2 -22.133,-4.51 l -10.05,-21.86 c -0.911,-1.96 -2.321,-3.54 -3.75,-4.37 -0.946,-0.54 -1.891,-0.75 -2.703,-0.53 l -23.059,5.88 c -2.047,0.56 -2.551,3.57 -1.043,6.86 l 10.113,21.87 c -5.297,3.52 -9.922,8.06 -13.769,13.66 l -16.352,-15.55 -1.422,-1.09 c -1.937,-1.12 -3.765,-0.73 -4.39,1.14 l -8.891,25.97 c -0.781,2.35 0.535,6.1 2.977,8.43 l 16.378,15.57" /><path
         id="path286"
         style="fill:#ffffff;fill-opacity:1;fill-rule:nonzero;stroke:none"
         d="m 639.035,2902.02 c 26.961,15.56 48.75,53.31 48.66,84.29 -0.086,30.98 -22.019,43.48 -48.972,27.91 -26.934,-15.55 -48.719,-53.29 -48.633,-84.27 0.09,-30.98 22.019,-43.48 48.945,-27.93 z m -68.539,32.12 c 1.063,7.01 2.777,14.07 5.078,21.12 l -10,2.58 c -1.484,0.39 -1.832,2.57 -0.758,4.9 l 11.899,25.78 c 0.648,1.4 1.66,2.54 2.691,3.13 l 1.938,0.39 10,-2.58 c 4.062,6.68 8.558,13.09 13.402,19 l -3.84,11.26 c -0.562,1.7 0.391,4.38 2.117,6.06 l 19.313,18.36 1.047,0.8 c 1.375,0.8 2.672,0.52 3.125,-0.84 l 3.836,-11.29 c 2.754,1.94 5.5,3.78 8.308,5.4 2.844,1.64 5.586,2.98 8.34,4.21 l 3.762,15.68 c 0.437,1.87 1.726,3.64 3.113,4.45 l 1.047,0.4 19.356,3.96 c 1.726,0.32 2.695,-1.25 2.136,-3.6 l -3.758,-15.64 c 4.864,-0.32 9.375,-1.52 13.465,-3.49 l 9.953,14.1 1.934,1.84 c 1.023,0.59 2.039,0.63 2.695,-0.02 l 12.012,-11.98 c 1.082,-1.08 0.754,-3.65 -0.734,-5.75 l -9.95,-14.1 c 2.332,-4.37 4.082,-9.44 5.188,-15.21 l 12.312,7.12 c 1.856,1.07 3.34,0.26 3.348,-1.87 l 0.07,-23.35 c 0,-2.1 -1.472,-4.66 -3.332,-5.73 l -12.312,-7.11 c -1.067,-7.01 -2.781,-14.08 -5.078,-21.13 l 10,-2.58 c 1.484,-0.38 1.828,-2.56 0.754,-4.85 l -11.899,-25.82 c -0.652,-1.41 -1.66,-2.54 -2.691,-3.13 l -1.938,-0.4 -10,2.59 c -4.058,-6.69 -8.562,-13.09 -13.394,-19.01 l 3.836,-11.26 c 0.554,-1.69 -0.391,-4.38 -2.121,-6.01 l -19.317,-18.4 -1.004,-0.77 c -1.394,-0.8 -2.715,-0.54 -3.164,0.81 l -3.84,11.29 c -2.742,-1.95 -5.496,-3.74 -8.339,-5.38 -2.801,-1.62 -5.555,-3 -8.297,-4.23 l -3.774,-15.68 c -0.437,-1.86 -1.746,-3.65 -3.152,-4.45 l -1.008,-0.4 -19.348,-3.92 c -1.73,-0.37 -2.695,1.21 -2.144,3.56 l 3.762,15.64 c -4.86,0.32 -9.375,1.51 -13.465,3.49 l -9.949,-14.1 -1.942,-1.85 c -1.023,-0.59 -2.039,-0.62 -2.691,0.03 l -12.008,12.01 c -1.086,1.04 -0.754,3.62 0.727,5.72 l 9.953,14.09 c -2.336,4.38 -4.086,9.45 -5.184,15.21 l -12.316,-7.11 c -1.852,-1.07 -3.34,-0.22 -3.348,1.87 l -0.066,23.35 c -0.004,2.13 1.472,4.65 3.324,5.72 l 12.32,7.12" /><path
         id="path288"
         style="fill:#f2f2f2;fill-opacity:1;fill-rule:nonzero;stroke:none"
         d="M 417.973,1438.43 5.34766,1676.66 c -7.91797,4.57 -6.92969,12.56 2.21875,17.83 L 412.996,1928.58 c 9.145,5.27 22.977,5.84 30.899,1.27 l 412.621,-238.22 c 7.918,-4.58 6.922,-12.57 -2.215,-17.84 L 448.863,1439.72 c -9.144,-5.29 -22.976,-5.86 -30.89,-1.29" /><path
         id="path290"
         style="fill:#f2f2f2;fill-opacity:1;fill-rule:nonzero;stroke:none"
         d="M 433.395,1666.39 38.9922,1894.09 430.93,2120.38 825.324,1892.68 433.395,1666.39" /><path
         id="path292"
         style="fill:#e6e6e6;fill-opacity:1;fill-rule:nonzero;stroke:none"
         d="M 433.258,1691.23 82.0273,1894.01 431.063,2095.54 782.297,1892.75 433.258,1691.23" /><path
         id="path294"
         style="fill:#bfbfbf;fill-opacity:1;fill-rule:nonzero;stroke:none"
         d="m 433.395,1466.28 v 200.11 l 391.929,226.29 V 1692.57 L 433.395,1466.28" /><path
         id="path296"
         style="fill:#e6e6e6;fill-opacity:1;fill-rule:nonzero;stroke:none"
         d="M 38.9922,1894.09 V 1694 L 433.395,1466.28 v 200.11 l -394.4028,227.7" /><path
         id="path298"
         style="fill:#4d4d4d;fill-opacity:1;fill-rule:nonzero;stroke:none"
         d="m 167.629,1844.59 -27.77,15.96 -4.726,64.2 -9.848,137.07 27.574,-13.4 7.875,-108.9 6.895,-94.93" /><path
         id="path300"
         style="fill:#737373;fill-opacity:1;fill-rule:nonzero;stroke:none"
         d="m 152.844,2048.44 -27.653,13.39 344.016,198.61 27.648,-13.38 -344.011,-198.62" /><path
         id="path302"
         style="fill:#1f2125;fill-opacity:1;fill-rule:nonzero;stroke:none"
         d="m 526.641,1836.52 -149.082,-86.06 -23.43,-13.59 -1.973,-1.19 -0.195,2.57 -14.773,8.47 -27.766,15.95 -14.57,8.47 -27.77,15.95 -14.769,8.47 -27.77,16.15 -14.375,8.27 -27.969,16.14 -14.57,8.47 -6.895,94.93 -7.875,108.9 344.043,198.71 1.375,-19.69 2.168,-27.97 1.379,-19.69 v -0.2 l 1.973,-27.96 1.375,-19.7 2.168,-28.16 1.379,-19.49 1.972,-28.17 0.59,-6.89 0.785,-12.8 2.168,-28.16 12.407,-171.73" /><path
         id="path304"
         style="fill:#4d4d4d;fill-opacity:1;fill-rule:nonzero;stroke:none"
         d="m 210.168,1819.98 -27.969,16.14 -8.07,111.08 -6.5,89.4 27.762,-13.39 4.336,-61.24 10.441,-141.99" /><path
         id="path306"
         style="fill:#737373;fill-opacity:1;fill-rule:nonzero;stroke:none"
         d="m 195.309,2023.21 -27.657,13.38 344.02,198.62 27.652,-13.38 -344.015,-198.62" /><path
         id="path308"
         style="fill:#1f2125;fill-opacity:1;fill-rule:nonzero;stroke:none"
         d="m 569.176,1811.31 -171.922,-99.25 -17.527,10.04 -25.598,14.77 -1.973,-1.19 -0.195,2.57 -14.773,8.47 -27.766,15.95 -14.57,8.47 -27.77,15.95 -14.769,8.47 -27.77,16.15 -14.375,8.27 -10.441,141.99 -4.336,61.24 305.054,176.26 38.801,22.45 1.375,-19.89 2.168,-27.96 1.379,-19.5 1.969,-28.36 1.574,-19.49 1.969,-28.16 1.383,-19.5 v -0.2 l 2.16,-27.96 v -0.21 l 0.398,-5.9 15.555,-213.48" /><path
         id="path310"
         style="fill:#4d4d4d;fill-opacity:1;fill-rule:nonzero;stroke:none"
         d="m 252.313,1795.56 -27.77,16.15 -11.422,157.94 -2.953,41.75 27.566,-13.39 0.989,-13.59 13.59,-188.86" /><path
         id="path312"
         style="fill:#737373;fill-opacity:1;fill-rule:nonzero;stroke:none"
         d="m 237.773,1997.98 -27.656,13.38 344.016,198.62 27.656,-13.39 -344.016,-198.61" /><path
         id="path314"
         style="fill:#1f2125;fill-opacity:1;fill-rule:nonzero;stroke:none"
         d="m 610.93,1793.79 -177.637,-102.61 -36.039,20.88 -17.527,10.04 -25.598,14.77 -1.973,-1.19 -0.195,2.57 -14.773,8.47 -27.766,15.95 -14.57,8.47 -27.77,15.95 -14.769,8.47 -13.59,188.86 -0.989,13.59 266.063,153.61 77.988,44.9 1.375,-19.5 2.168,-28.16 1.379,-19.5 v -0.19 l 1.969,-27.97 1.379,-19.7 2.164,-28.15 3.746,-52.98 14.965,-206.58" /><path
         id="path316"
         style="fill:#4d4d4d;fill-opacity:1;fill-rule:nonzero;stroke:none"
         d="m 294.852,1771.14 -27.77,15.95 -14.574,199.1 27.765,-13.39 14.579,-201.66" /><path
         id="path318"
         style="fill:#737373;fill-opacity:1;fill-rule:nonzero;stroke:none"
         d="m 280.234,1972.75 -27.648,13.37 344.008,198.63 27.656,-13.39 -344.016,-198.61" /><path
         id="path320"
         style="fill:#1f2125;fill-opacity:1;fill-rule:nonzero;stroke:none"
         d="m 650.117,1816.44 -39.187,-22.65 -177.637,-102.61 -36.039,20.88 -17.527,10.04 -25.598,14.77 -1.973,-1.19 -0.195,2.57 -14.773,8.47 -27.766,15.95 -14.57,8.47 -14.579,201.66 181.774,104.77 45.293,26.19 38.797,22.45 39.191,22.65 38.988,22.45 1.379,-19.5 2.168,-28.16 1.375,-19.5 1.977,-28.35 7.281,-100.05 11.621,-159.31" /><path
         id="path322"
         style="fill:#4d4d4d;fill-opacity:1;fill-rule:nonzero;stroke:none"
         d="m 337.188,1746.72 -27.766,15.95 -14.375,198.32 27.566,-13.4 14.575,-200.87" /><path
         id="path324"
         style="fill:#737373;fill-opacity:1;fill-rule:nonzero;stroke:none"
         d="m 322.703,1947.51 -27.656,13.39 344.016,198.61 27.66,-13.38 -344.02,-198.62" /><path
         id="path326"
         style="fill:#1f2125;fill-opacity:1;fill-rule:nonzero;stroke:none"
         d="m 689.113,1838.89 -38.996,-22.45 -39.187,-22.65 -177.637,-102.61 -36.039,20.88 -17.527,10.04 -25.598,14.77 -1.973,-1.19 -0.195,2.57 -14.773,8.47 -14.575,200.87 182.364,105.16 5.714,3.35 38.989,22.46 38.996,22.64 39.187,22.45 38.797,22.45 1.379,-19.49 2.168,-28.16 v -0.21 l 10.637,-146.9 8.269,-112.45" /><path
         id="path328"
         style="fill:#4d4d4d;fill-opacity:1;fill-rule:nonzero;stroke:none"
         d="m 379.727,1722.1 -25.598,14.77 -1.973,-1.19 -0.195,2.57 -14.375,197.33 27.566,-13.39 12.407,-171.73 2.168,-28.36" /><path
         id="path330"
         style="fill:#737373;fill-opacity:1;fill-rule:nonzero;stroke:none"
         d="m 365.168,1922.29 -27.656,13.38 344.011,198.61 27.661,-13.38 -344.016,-198.61" /><path
         id="path332"
         style="fill:#1f2125;fill-opacity:1;fill-rule:nonzero;stroke:none"
         d="m 727.91,1861.53 -38.797,-22.64 -38.996,-22.45 -39.187,-22.65 -177.637,-102.61 -36.039,20.88 -17.527,10.04 -2.168,28.36 -12.407,171.73 149.082,86.06 34.071,19.69 4.918,2.75 34.664,20.09 4.332,2.57 38.996,22.45 38.992,22.44 38.992,22.65 13.985,-193.97 4.726,-65.39" /><path
         id="path334"
         style="fill:#f2f2f2;fill-opacity:1;fill-rule:nonzero;stroke:none"
         d="m 462.172,1798.02 49.734,-4.71 v -22.13 l -83.57,7.31 83.57,103.57 v -22.13 l -49.734,-61.91" /><path
         id="path336"
         style="fill:#f2f2f2;fill-opacity:1;fill-rule:nonzero;stroke:none"
         d="m 549.531,1762.66 -16.062,-9.28 c 15.879,58.35 27.722,102.07 35.543,131.18 l 17.773,65.6 16.082,9.28 -53.336,-196.78" /><path
         id="path338"
         style="fill:#f2f2f2;fill-opacity:1;fill-rule:nonzero;stroke:none"
         d="m 670.559,1918.33 -49.922,4.6 v 21.91 l 83.758,-6.97 -83.758,-103.91 v 22.35 l 49.922,62.02" /><path
         id="path340"
         style="fill:#f2f2f2;fill-opacity:1;fill-rule:nonzero;stroke:none"
         d="m 2398.32,41.2188 c -95.62,-55.1993 -251.13,-54.918 -347.35,0.6328 -96.22,55.5468 -96.71,145.3394 -1.1,200.5394 95.63,55.211 251.15,54.929 347.37,-0.621 96.21,-55.559 96.7,-145.3403 1.08,-200.5512" /><path
         id="path342"
         style="fill:#c4c4c4;fill-opacity:1;fill-rule:nonzero;stroke:none"
         d="m 2372.59,71.7188 c -81.49,-47.0469 -214.04,-46.8204 -296.05,0.5429 -82.01,47.3403 -82.43,123.8593 -0.92,170.9103 81.49,47.058 214.03,46.82 296.04,-0.531 82,-47.352 82.42,-123.871 0.93,-170.9222" /><path
         id="path344"
         style="fill:#d9d9d9;fill-opacity:1;fill-rule:nonzero;stroke:none"
         d="M 2426.37,551.91 H 2021.95 V 172.941 c -1.11,-30.812 18.74,-61.89 59.59,-85.4801 79.22,-45.7421 207.28,-45.9687 286.02,-0.5195 40.83,23.5786 60.32,54.8086 58.63,85.8006 l 0.18,379.168" /><path
         id="path346"
         style="fill:#f2f2f2;fill-opacity:1;fill-rule:nonzero;stroke:none"
         d="m 2372.59,459.422 c -81.49,-47.051 -214.04,-46.813 -296.05,0.539 -82.01,47.348 -82.43,123.871 -0.92,170.918 81.49,47.051 214.03,46.82 296.04,-0.539 82,-47.34 82.42,-123.86 0.93,-170.918" /><path
         id="path348"
         style="fill:#ffd166;fill-opacity:1;fill-rule:nonzero;stroke:none"
         d="m 2267.95,426.82 h -0.06 c -66.79,-7.988 -139.26,3.071 -191.35,33.129 -9.27,5.34 -17.52,11.102 -24.72,17.121 l 35.55,19.739 172.98,-44.258 7.6,-25.731" /><path
         id="path350"
         style="fill:#999999;fill-opacity:1;fill-rule:nonzero;stroke:none"
         d="m 2389.03,508.16 c -8.51,-12.879 -21.76,-24.941 -39.71,-35.301 -68.73,-39.679 -180.5,-39.5 -249.67,0.442 -18.34,10.57 -31.82,22.871 -40.48,36 -24.01,36.379 -10.8,78.969 39.72,108.14 68.72,39.68 180.49,39.5 249.66,-0.441 51.1,-29.52 64.64,-72.441 40.48,-108.84" /><path
         id="path352"
         style="fill:#ffad66;fill-opacity:1;fill-rule:nonzero;stroke:none"
         d="m 2389.03,508.16 c -8.51,-12.879 -21.76,-24.941 -39.71,-35.301 -68.73,-39.679 -180.5,-39.5 -249.67,0.442 -18.34,10.57 -31.82,22.871 -40.48,36 8.52,12.859 21.76,24.929 39.72,35.289 68.72,39.68 180.49,39.5 249.66,-0.438 18.34,-10.562 31.82,-22.871 40.48,-35.992" /><path
         id="path354"
         style="fill:#d9d9d9;fill-opacity:1;fill-rule:nonzero;stroke:none"
         d="m 2098.87,598.809 c 68.73,39.683 180.52,39.48 249.68,-0.45 30.63,-17.687 47.74,-40.199 51.34,-63.25 4.67,29.211 -12.46,59.442 -51.34,81.891 -69.16,39.93 -180.95,40.129 -249.68,0.449 -38.28,-22.097 -55.11,-51.91 -50.57,-80.898 3.64,22.758 20.48,44.89 50.57,62.258" /><path
         id="path356"
         style="fill:#ffad66;fill-opacity:1;fill-rule:nonzero;stroke:none"
         d="m 2262.92,68.7891 -1.45,-0.1485 c -3.84,-0.1015 -7.57,2.1094 -10.35,4.8711 -8.48,8.2969 -11.04,21.1875 -19.17,29.8593 -6.6,7.078 -16.26,10.66 -22.98,17.66 -4.97,5.231 -7.99,12.028 -12.91,17.321 -4.92,5.25 -13.17,8.777 -19.31,5.027 -4.33,-2.617 -7.57,-8.508 -12.51,-7.57 -1.48,0.293 -2.76,1.203 -3.9,2.171 -7.82,6.649 -11.12,17.34 -11.8,27.61 -0.69,10.269 0.83,20.531 0.71,30.832 -0.09,4.949 -0.54,10.008 -2.39,14.59 -4.49,11.109 -16.32,17.89 -21.21,28.828 -2.68,5.969 -3.38,13.262 -8.42,17.41 -4.55,3.691 -11.01,3.52 -16.84,3.18 -1.56,-0.121 -3.21,-0.219 -4.49,-1.129 -1.65,-1.199 -2.19,-3.332 -2.62,-5.289 -8.07,-38.91 -0.1,-81.172 -16.09,-117.571 -2.71,-6.171 -6.68,-12.57 -13.16,-14.48 -2.59,-0.762 -5.52,-0.281 -7.86,1 -8.16,4.41 -4.35,18.629 -4.35,26.5 V 477.07 c 7.2,-6.019 15.45,-11.781 24.72,-17.121 52.09,-30.09 124.58,-41.148 191.41,-33.129 V 116.961 c 0,-8.961 4.98,-46.3204 -5.03,-48.1719" /><path
         id="path358"
         style="fill:#f2f2f2;fill-opacity:1;fill-rule:nonzero;stroke:none"
         d="m 2939.08,287.711 c -95.61,-55.211 -251.13,-54.93 -347.35,0.629 -96.22,55.551 -96.71,145.332 -1.08,200.539 95.61,55.203 251.13,54.93 347.35,-0.629 96.22,-55.539 96.71,-145.34 1.08,-200.539" /><path
         id="path360"
         style="fill:#c4c4c4;fill-opacity:1;fill-rule:nonzero;stroke:none"
         d="m 2913.35,318.199 c -81.49,-47.051 -214.04,-46.797 -296.04,0.543 -82.02,47.348 -82.43,123.879 -0.93,170.93 81.49,47.047 214.04,46.808 296.04,-0.543 82.02,-47.348 82.43,-123.867 0.93,-170.93" /><path
         id="path362"
         style="fill:#d9d9d9;fill-opacity:1;fill-rule:nonzero;stroke:none"
         d="M 2967.13,798.391 H 2562.72 V 419.43 c -1.11,-30.809 18.73,-61.891 59.59,-85.481 79.23,-45.75 207.28,-45.969 286.01,-0.508 40.83,23.559 60.32,54.789 58.63,85.778 l 0.18,379.172" /><path
         id="path364"
         style="fill:#f2f2f2;fill-opacity:1;fill-rule:nonzero;stroke:none"
         d="m 2913.35,705.91 c -81.49,-47.051 -214.04,-46.808 -296.04,0.539 -82.02,47.34 -82.43,123.86 -0.93,170.91 81.49,47.063 214.04,46.821 296.04,-0.519 82.02,-47.36 82.43,-123.879 0.93,-170.93" /><path
         id="path366"
         style="fill:#8482ff;fill-opacity:1;fill-rule:nonzero;stroke:none"
         d="m 2808.71,673.309 h -0.05 c -66.8,-7.989 -139.26,3.07 -191.36,33.132 -9.27,5.348 -17.51,11.09 -24.71,17.118 l 35.55,19.73 172.98,-44.258 7.59,-25.722" /><path
         id="path368"
         style="fill:#999999;fill-opacity:1;fill-rule:nonzero;stroke:none"
         d="m 2929.79,754.641 c -8.51,-12.86 -21.75,-24.93 -39.71,-35.289 -68.73,-39.68 -180.5,-39.512 -249.67,0.437 -18.33,10.563 -31.81,22.871 -40.47,36 -24.02,36.383 -10.8,78.981 39.71,108.141 68.73,39.679 180.5,39.5 249.67,-0.438 51.09,-29.523 64.64,-72.433 40.47,-108.851" /><path
         id="path370"
         style="fill:#4d4bb7;fill-opacity:1;fill-rule:nonzero;stroke:none"
         d="m 2929.79,754.641 c -8.51,-12.86 -21.75,-24.93 -39.71,-35.289 -68.73,-39.68 -180.5,-39.512 -249.67,0.437 -18.33,10.563 -31.81,22.871 -40.47,36 8.51,12.859 21.75,24.93 39.71,35.301 68.73,39.672 180.5,39.5 249.67,-0.449 18.34,-10.571 31.81,-22.879 40.47,-36" /><path
         id="path372"
         style="fill:#d9d9d9;fill-opacity:1;fill-rule:nonzero;stroke:none"
         d="m 2639.64,845.289 c 68.73,39.691 180.51,39.492 249.67,-0.449 30.64,-17.68 47.74,-40.199 51.36,-63.25 4.65,29.219 -12.47,59.449 -51.36,81.902 -69.16,39.93 -180.94,40.129 -249.67,0.449 -38.29,-22.101 -55.11,-51.921 -50.58,-80.89 3.64,22.738 20.49,44.879 50.58,62.238" /><path
         id="path374"
         style="fill:#4d4bb7;fill-opacity:1;fill-rule:nonzero;stroke:none"
         d="m 2803.68,315.27 -1.45,-0.129 c -3.84,-0.121 -7.56,2.101 -10.35,4.859 -8.47,8.301 -11.03,21.18 -19.16,29.852 -6.6,7.078 -16.27,10.668 -22.98,17.668 -4.98,5.23 -7.99,12.019 -12.91,17.32 -4.92,5.262 -13.18,8.781 -19.32,5.019 -4.31,-2.597 -7.56,-8.488 -12.51,-7.55 -1.47,0.281 -2.75,1.191 -3.89,2.152 -7.83,6.66 -11.12,17.359 -11.8,27.621 -0.69,10.258 0.82,20.527 0.71,30.82 -0.09,4.95 -0.55,10.008 -2.39,14.59 -4.49,11.117 -16.33,17.887 -21.21,28.84 -2.68,5.977 -3.39,13.25 -8.42,17.398 -4.55,3.7 -11.01,3.532 -16.84,3.192 -1.57,-0.113 -3.21,-0.231 -4.49,-1.141 -1.65,-1.191 -2.2,-3.332 -2.62,-5.289 -8.07,-38.902 -0.11,-81.16 -16.1,-117.562 -2.69,-6.168 -6.68,-12.571 -13.16,-14.469 -2.59,-0.77 -5.52,-0.289 -7.85,0.988 -8.16,4.41 -4.35,18.633 -4.35,26.512 v 327.598 c 7.2,-6.028 15.44,-11.77 24.71,-17.118 52.1,-30.089 124.59,-41.152 191.41,-33.132 v -309.86 c 0,-8.957 4.98,-46.328 -5.03,-48.179" /><path
         id="path376"
         style="fill:#f2f2f2;fill-opacity:1;fill-rule:nonzero;stroke:none"
         d="m 3904.92,413.469 c -95.62,-55.207 -251.14,-54.918 -347.36,0.621 -96.22,55.558 -96.7,145.34 -1.08,200.551 95.61,55.199 251.13,54.918 347.35,-0.629 96.22,-55.551 96.71,-145.34 1.09,-200.543" /><path
         id="path378"
         style="fill:#c4c4c4;fill-opacity:1;fill-rule:nonzero;stroke:none"
         d="m 3879.18,443.969 c -81.49,-47.047 -214.03,-46.809 -296.04,0.531 -82.01,47.352 -82.43,123.871 -0.93,170.922 81.49,47.047 214.04,46.82 296.04,-0.531 82.02,-47.352 82.43,-123.871 0.93,-170.922" /><path
         id="path380"
         style="fill:#d9d9d9;fill-opacity:1;fill-rule:nonzero;stroke:none"
         d="m 3932.96,924.152 h -404.4 V 545.191 c -1.12,-30.812 18.72,-61.89 59.58,-85.48 79.23,-45.742 207.28,-45.981 286.01,-0.52 40.83,23.571 60.32,54.809 58.64,85.789 l 0.17,379.172" /><path
         id="path382"
         style="fill:#f2f2f2;fill-opacity:1;fill-rule:nonzero;stroke:none"
         d="m 3879.18,831.672 c -81.49,-47.051 -214.03,-46.82 -296.04,0.539 -82.01,47.34 -82.43,123.871 -0.93,170.919 81.49,47.05 214.04,46.81 296.04,-0.54 82.02,-47.34 82.43,-123.871 0.93,-170.918" /><path
         id="path384"
         style="fill:#737373;fill-opacity:1;fill-rule:nonzero;stroke:none"
         d="m 3774.55,799.07 h -0.06 c -66.8,-7.988 -139.25,3.071 -191.35,33.129 -9.28,5.352 -17.52,11.09 -24.72,17.121 l 35.55,19.731 172.98,-44.25 7.6,-25.731" /><path
         id="path386"
         style="fill:#999999;fill-opacity:1;fill-rule:nonzero;stroke:none"
         d="m 3895.62,880.402 c -8.51,-12.863 -21.75,-24.933 -39.71,-35.293 -68.73,-39.679 -180.49,-39.5 -249.66,0.442 -18.34,10.558 -31.82,22.871 -40.48,35.988 -24.01,36.391 -10.8,78.981 39.71,108.152 68.73,39.679 180.5,39.499 249.67,-0.441 51.1,-29.52 64.64,-72.441 40.47,-108.848" /><path
         id="path388"
         style="fill:#1f2125;fill-opacity:1;fill-rule:nonzero;stroke:none"
         d="m 3895.62,880.402 c -8.51,-12.863 -21.75,-24.933 -39.71,-35.293 -68.73,-39.679 -180.49,-39.5 -249.66,0.442 -18.34,10.558 -31.82,22.871 -40.48,35.988 8.51,12.883 21.76,24.941 39.71,35.301 68.73,39.672 180.5,39.5 249.67,-0.438 18.34,-10.57 31.81,-22.871 40.47,-36" /><path
         id="path390"
         style="fill:#d9d9d9;fill-opacity:1;fill-rule:nonzero;stroke:none"
         d="m 3605.47,971.059 c 68.73,39.681 180.52,39.481 249.68,-0.45 30.63,-17.687 47.73,-40.207 51.35,-63.257 4.66,29.218 -12.47,59.449 -51.35,81.898 -69.16,39.93 -180.95,40.14 -249.68,0.449 -38.28,-22.097 -55.11,-51.918 -50.57,-80.898 3.64,22.75 20.48,44.879 50.57,62.258" /><path
         id="path392"
         style="fill:#1f2125;fill-opacity:1;fill-rule:nonzero;stroke:none"
         d="m 3769.51,441.039 -1.44,-0.148 c -3.84,-0.11 -7.57,2.109 -10.35,4.859 -8.48,8.309 -11.04,21.191 -19.17,29.871 -6.6,7.078 -16.27,10.66 -22.98,17.649 -4.97,5.242 -7.99,12.031 -12.91,17.332 -4.92,5.257 -13.17,8.789 -19.31,5.027 -4.32,-2.617 -7.57,-8.5 -12.52,-7.559 -1.47,0.282 -2.75,1.192 -3.88,2.16 -7.83,6.649 -11.13,17.34 -11.81,27.61 -0.69,10.269 0.82,20.531 0.71,30.82 -0.09,4.949 -0.55,10.012 -2.39,14.59 -4.49,11.129 -16.32,17.891 -21.21,28.84 -2.68,5.969 -3.39,13.25 -8.42,17.402 -4.55,3.699 -11.01,3.528 -16.84,3.188 -1.56,-0.11 -3.21,-0.231 -4.49,-1.141 -1.65,-1.199 -2.19,-3.328 -2.62,-5.289 -8.07,-38.91 -0.11,-81.16 -16.09,-117.559 -2.7,-6.171 -6.69,-12.57 -13.17,-14.48 -2.59,-0.762 -5.51,-0.281 -7.84,1 -8.17,4.41 -4.36,18.629 -4.36,26.5 V 849.32 c 7.2,-6.031 15.44,-11.769 24.72,-17.121 52.1,-30.09 124.58,-41.148 191.41,-33.129 V 489.211 c 0,-8.949 4.97,-46.332 -5.04,-48.172" /><path
         id="path394"
         style="fill:#f2f2f2;fill-opacity:1;fill-rule:nonzero;stroke:none"
         d="m 508.293,638.762 c -13.141,-7.59 -34.242,-7.59 -47.301,0 L 117.07,838.621 c -12.882,7.488 -12.816,19.719 0.328,27.309 l 346.168,199.85 c 12.973,7.49 34.243,7.6 47.133,0.1 L 854.621,866.02 c 13.059,-7.59 12.813,-19.911 -0.156,-27.399 L 508.293,638.762" /><path
         id="path396"
         style="fill:#ffad66;fill-opacity:1;fill-rule:nonzero;stroke:none"
         d="M 506.383,669.391 820.41,850.68 c 5.949,3.441 8.945,7.98 8.93,12.531 l -0.168,31.687 c 0.012,-4.546 -2.981,-9.089 -8.926,-12.519 L 506.219,701.082 c -11.926,-6.891 -31.067,-6.891 -42.91,0 L 151.316,882.379 c -5.789,3.363 -8.699,7.793 -8.711,12.223 l 0.168,-31.692 c 0.016,-4.441 2.922,-8.859 8.707,-12.219 l 311.993,-181.3 c 11.851,-6.891 30.988,-6.891 42.91,0" /><path
         id="path398"
         style="fill:#ffd166;fill-opacity:1;fill-rule:nonzero;stroke:none"
         d="m 506.219,701.082 c -11.926,-6.891 -31.067,-6.891 -42.91,0 L 151.316,882.379 c -11.695,6.801 -11.628,17.883 0.293,24.769 l 314.032,181.312 c 11.769,6.79 31.066,6.87 42.754,0.09 L 820.383,907.242 c 11.855,-6.89 11.633,-18.07 -0.137,-24.863 L 506.219,701.082" /><path
         id="path400"
         style="fill:#ffffff;fill-opacity:1;fill-rule:nonzero;stroke:none"
         d="m 545.234,956.082 c 34.543,8.539 66.418,13.008 95.618,13.43 l 9.851,-20.043 c -27.781,-1.239 -56.562,-5.75 -86.336,-13.547 -29.785,-7.793 -57.922,-19.34 -84.418,-34.633 C 453.465,886 433.41,869.719 419.82,852.461 406.223,835.23 398.453,818.629 396.508,802.711 l -35.024,5.508 c 0.918,16.972 8.782,35.429 23.582,55.383 14.805,19.949 36.571,38.207 65.278,54.777 28.715,16.582 60.34,29.141 94.89,37.703" /><path
         id="path402"
         style="fill:#000000;fill-opacity:1;fill-rule:nonzero;stroke:none"
         d="m 1105.57,3380.38 -72.72,-42.26 0.7,0.54 72.72,42.26 -0.7,-0.54" /><path
         id="path404"
         style="fill:#000000;fill-opacity:1;fill-rule:nonzero;stroke:none"
         d="m 936.641,3542.29 72.719,42.26 c 0.77,0.45 1.74,0.59 2.85,0.37 l -72.726,-42.26 c -1.113,0.22 -2.082,0.07 -2.843,-0.37" /><path
         id="path406"
         style="fill:#000000;fill-opacity:1;fill-rule:nonzero;stroke:none"
         d="m 1049.05,3354.19 72.73,42.26 -15.51,-15.53 -72.72,-42.26 15.5,15.53" /><path
         id="path408"
         style="fill:#000000;fill-opacity:1;fill-rule:nonzero;stroke:none"
         d="m 939.484,3542.66 72.726,42.26 25.01,-5.12 -72.716,-42.26 -25.02,5.12" /><path
         id="path410"
         style="fill:#000000;fill-opacity:1;fill-rule:nonzero;stroke:none"
         d="m 1210.62,3296.65 -72.73,-42.26 c 1.26,0.73 2.04,2.29 2.04,4.54 l 72.73,42.26 c -0.01,-2.25 -0.78,-3.81 -2.04,-4.54" /><path
         id="path412"
         style="fill:#000000;fill-opacity:1;fill-rule:nonzero;stroke:none"
         d="m 1140.02,3289.05 72.73,42.26 -0.09,-30.12 -72.73,-42.26 0.09,30.12" /><path
         id="path414"
         style="fill:#000000;fill-opacity:1;fill-rule:nonzero;stroke:none"
         d="m 950.363,3656.58 72.717,42.26 c 1.31,0.77 3.11,0.6 5,-0.49 l 2.21,-1.69 -72.72,-42.26 -2.207,1.69 c -1.894,1.09 -3.691,1.25 -5,0.49" /><path
         id="path416"
         style="fill:#000000;fill-opacity:1;fill-rule:nonzero;stroke:none"
         d="m 957.57,3654.4 72.72,42.26 24.92,-23.7 -72.73,-42.26 -24.91,23.7" /><path
         id="path418"
         style="fill:#000000;fill-opacity:1;fill-rule:nonzero;stroke:none"
         d="m 1038.19,3599.48 72.71,42.26 c -18.63,-10.83 -30.2,-33.85 -30.28,-66.58 -0.19,-65.96 46.2,-146.31 103.6,-179.45 l -72.71,-42.26 c -57.42,33.14 -103.8,113.48 -103.62,179.45 0.1,32.72 11.65,55.74 30.3,66.58" /><path
         id="path420"
         style="fill:#000000;fill-opacity:1;fill-rule:nonzero;stroke:none"
         d="m 1258.14,3388.48 -72.73,-42.26 c -18.89,-10.98 -45.05,-9.43 -73.9,7.23 l 72.71,42.26 c 28.86,-16.67 55.02,-18.21 73.92,-7.23" /><path
         id="path422"
         style="fill:#000000;fill-opacity:1;fill-rule:nonzero;stroke:none"
         d="m 1307.59,3292.98 -72.72,-42.27 c 2.4,1.4 2.83,5.59 0.75,10.12 l 72.72,42.26 c 2.08,-4.53 1.65,-8.72 -0.75,-10.11" /><path
         id="path424"
         style="fill:#000000;fill-opacity:1;fill-rule:nonzero;stroke:none"
         d="m 1220.21,3294.15 72.72,42.26 15.41,-33.32 -72.72,-42.26 -15.41,33.32" /><path
         id="path426"
         style="fill:#000000;fill-opacity:1;fill-rule:nonzero;stroke:none"
         d="m 1241.19,3314.96 72.73,42.26 c -5.87,-8.52 -12.91,-15.45 -20.99,-20.81 l -72.72,-42.26 c 8.07,5.36 15.11,12.29 20.98,20.81" /><path
         id="path428"
         style="fill:#000000;fill-opacity:1;fill-rule:nonzero;stroke:none"
         d="m 1034.56,3696.82 72.73,42.26 15.36,-33.3 -72.72,-42.25 -15.37,33.29" /><path
         id="path430"
         style="fill:#666666;fill-opacity:1;fill-rule:nonzero;stroke:none"
         d="m 1101.62,3745.71 c -1.44,0.84 -2.9,1.17 -4.16,0.83 l -35.09,-8.98 -0.88,-0.36 -72.728,-42.26 0.879,0.36 35.099,8.99 c 1.26,0.33 2.72,0 4.17,-0.84 2.16,-1.24 4.28,-3.63 5.65,-6.63 l 72.73,42.26 c -1.38,3.01 -3.51,5.39 -5.67,6.63" /><path
         id="path432"
         style="fill:#000000;fill-opacity:1;fill-rule:nonzero;stroke:none"
         d="m 1346,3331.39 -72.73,-42.26 c 0.76,0.44 1.35,1.18 1.7,2.22 l 72.72,42.26 c -0.34,-1.04 -0.94,-1.78 -1.69,-2.22" /><path
         id="path434"
         style="fill:#000000;fill-opacity:1;fill-rule:nonzero;stroke:none"
         d="m 1049.93,3663.53 72.72,42.25 c 10.6,-0.49 21.86,-2.71 33.68,-6.88 l -72.71,-42.26 c -11.83,4.17 -23.08,6.4 -33.69,6.89" /><path
         id="path436"
         style="fill:#000000;fill-opacity:1;fill-rule:nonzero;stroke:none"
         d="m 1288.52,3330.91 72.71,42.27 -13.54,-39.57 -72.72,-42.26 13.55,39.56" /><path
         id="path438"
         style="fill:#666666;fill-opacity:1;fill-rule:nonzero;stroke:none"
         d="m 1356.7,3386.03 -24.96,23.73 -72.72,-42.26 24.96,-23.73 c 3.72,-3.56 5.72,-9.26 4.54,-12.86 l 72.71,42.27 c 1.19,3.59 -0.82,9.3 -4.53,12.85" /><path
         id="path440"
         style="fill:#000000;fill-opacity:1;fill-rule:nonzero;stroke:none"
         d="m 1259.13,3408.16 72.73,42.26 c 0.68,-7.06 1.04,-14.09 1.02,-20.9 -0.02,-6.93 -0.42,-13.52 -1.14,-19.76 l -72.72,-42.26 c 0.73,6.24 1.12,12.83 1.14,19.76 0.02,6.81 -0.33,13.84 -1.03,20.9" /><path
         id="path442"
         style="fill:#000000;fill-opacity:1;fill-rule:nonzero;stroke:none"
         d="m 1140.97,3623.53 72.72,42.26 c 11.8,-9.47 23.04,-20.24 33.66,-32 l -72.72,-42.26 c -10.62,11.76 -21.85,22.53 -33.66,32" /><path
         id="path444"
         style="fill:#000000;fill-opacity:1;fill-rule:nonzero;stroke:none"
         d="m 1141.06,3653.7 72.72,42.26 -0.09,-30.17 -72.72,-42.26 0.09,30.17" /><path
         id="path446"
         style="fill:#666666;fill-opacity:1;fill-rule:nonzero;stroke:none"
         d="m 1206.74,3708.14 -43.24,24.97 c -1.96,1.14 -3.74,1.24 -5.02,0.5 l -72.73,-42.26 c 1.28,0.74 3.06,0.63 5.02,-0.5 l 43.26,-24.96 c 3.89,-2.26 7.04,-7.71 7.03,-12.19 l 72.72,42.26 c 0.01,4.49 -3.13,9.93 -7.04,12.18" /><path
         id="path448"
         style="fill:#000000;fill-opacity:1;fill-rule:nonzero;stroke:none"
         d="m 1220.86,3526 72.73,42.26 c 8.01,-14.59 15,-29.67 20.8,-44.93 l -72.73,-42.26 c -5.8,15.26 -12.77,30.34 -20.8,44.93" /><path
         id="path450"
         style="fill:#000000;fill-opacity:1;fill-rule:nonzero;stroke:none"
         d="m 1359.72,3445.66 -72.73,-42.25 c 1.81,1.04 2.56,3.73 1.75,7.21 l 72.73,42.26 c 0.81,-3.47 0.06,-6.17 -1.75,-7.22" /><path
         id="path452"
         style="fill:#000000;fill-opacity:1;fill-rule:nonzero;stroke:none"
         d="m 1275.46,3465.67 72.73,42.26 13.28,-55.05 -72.73,-42.26 -13.28,55.05" /><path
         id="path454"
         style="fill:#666666;fill-opacity:1;fill-rule:nonzero;stroke:none"
         d="m 1341.54,3517.37 -2.18,0.86 -24.97,5.1 -72.73,-42.26 24.97,-5.1 2.19,-0.86 c 2.96,-1.7 5.71,-5.47 6.64,-9.44 l 72.73,42.26 c -0.94,3.97 -3.7,7.74 -6.65,9.44" /><path
         id="path456"
         style="fill:#000000;fill-opacity:1;fill-rule:nonzero;stroke:none"
         d="m 1236.42,3541.45 72.72,42.26 -15.55,-15.45 -72.73,-42.26 15.56,15.45" /><path
         id="path458"
         style="fill:#333333;fill-opacity:1;fill-rule:nonzero;stroke:none"
         d="m 1111.51,3353.45 c 57.35,-33.12 104.04,-6.52 104.22,59.45 0.19,65.92 -46.19,146.2 -103.55,179.32 -57.41,33.14 -104.1,6.59 -104.29,-59.32 -0.18,-65.97 46.2,-146.31 103.62,-179.45 z m 172.47,-9.68 c 3.72,-3.56 5.72,-9.26 4.54,-12.86 l -13.55,-39.56 c -0.95,-2.85 -3.74,-3.45 -6.7,-1.74 l -2.16,1.65 -24.92,23.7 c -5.87,-8.52 -12.91,-15.45 -20.98,-20.81 l 15.41,-33.32 c 2.29,-5.01 1.53,-9.6 -1.58,-10.46 l -35.14,-8.96 c -1.24,-0.34 -2.69,-0.01 -4.12,0.82 -2.18,1.25 -4.33,3.66 -5.72,6.65 l -15.31,33.32 c -10.65,0.46 -21.91,2.68 -33.73,6.85 l -0.09,-30.12 c -0.01,-4.54 -3.17,-6.29 -7.08,-4.03 l -43.24,24.96 c -3.91,2.26 -7.05,7.65 -7.03,12.19 l 0.08,30.11 c -11.8,9.47 -23.04,20.24 -33.61,32.03 l -15.5,-15.53 c -1.39,-1.38 -3.54,-1.3 -5.71,-0.05 -1.43,0.82 -2.88,2.17 -4.13,3.94 l -34.929,49.41 c -3.144,4.48 -3.879,9.93 -1.562,12.29 l 15.551,15.44 c -8.024,14.65 -15.004,29.67 -20.754,44.91 l -24.961,5.1 -2.2,0.86 c -2.976,1.72 -5.753,5.53 -6.691,9.47 l -13.269,55.05 c -1.165,4.95 0.871,8.33 4.589,7.58 l 25.02,-5.12 c -0.645,7.03 -1.043,14.08 -1.027,21.01 0.019,6.81 0.461,13.38 1.132,19.65 l -24.949,23.72 c -3.722,3.56 -5.73,9.26 -4.543,12.86 l 13.547,39.57 c 0.957,2.88 3.723,3.46 6.699,1.74 l 2.207,-1.69 24.91,-23.7 c 5.833,8.56 12.872,15.54 20.94,20.84 l -15.408,33.32 c -2.297,5.02 -1.528,9.61 1.629,10.44 l 35.099,8.99 c 1.26,0.33 2.72,0 4.17,-0.84 2.16,-1.24 4.28,-3.63 5.65,-6.63 l 15.37,-33.29 c 10.61,-0.49 21.86,-2.72 33.69,-6.89 l 0.07,30.17 c 0.02,4.49 3.19,6.3 7.08,4.04 l 43.26,-24.96 c 3.89,-2.26 7.04,-7.71 7.03,-12.19 l -0.09,-30.17 c 11.81,-9.47 23.04,-20.24 33.66,-32 l 15.45,15.5 c 1.39,1.41 3.54,1.33 5.7,0.08 1.45,-0.84 2.9,-2.19 4.14,-3.97 l 34.97,-49.44 c 3.11,-4.44 3.84,-9.9 1.53,-12.25 L 1220.86,3526 c 8.03,-14.59 15,-29.67 20.8,-44.93 l 24.97,-5.1 2.19,-0.86 c 2.96,-1.7 5.71,-5.47 6.64,-9.44 l 13.28,-55.05 c 1.16,-4.96 -0.88,-8.33 -4.6,-7.59 l -25.01,5.13 c 0.7,-7.06 1.05,-14.09 1.03,-20.9 -0.02,-6.93 -0.41,-13.52 -1.14,-19.76 l 24.96,-23.73" /><path
         id="path460"
         style="fill:#666666;fill-opacity:1;fill-rule:nonzero;stroke:none"
         d="m 1307.62,3595.96 -34.98,49.44 c -1.23,1.78 -2.69,3.13 -4.13,3.97 -1.82,1.05 -3.63,1.27 -4.98,0.49 l -72.73,-42.27 c 1.36,0.79 3.17,0.57 4.98,-0.48 1.45,-0.84 2.9,-2.19 4.14,-3.97 l 34.97,-49.44 c 3.11,-4.44 3.84,-9.9 1.53,-12.25 l 72.72,42.26 c 2.32,2.34 1.57,7.81 -1.52,12.25" /><path
         id="path462"
         style="fill:#4d4bb7;fill-opacity:1;fill-rule:nonzero;stroke:none"
         d="m 977.758,3891.96 86.582,50.32 0.74,0.31 -86.584,-50.32 -0.738,-0.31" /><path
         id="path464"
         style="fill:#4d4bb7;fill-opacity:1;fill-rule:nonzero;stroke:none"
         d="m 1174.2,3784.21 -86.58,-50.31 1.43,1.88 86.59,50.31 -1.44,-1.88" /><path
         id="path466"
         style="fill:#4d4bb7;fill-opacity:1;fill-rule:nonzero;stroke:none"
         d="m 978.496,3892.27 86.584,50.32 18.14,4.67 -86.587,-50.31 -18.137,-4.68" /><path
         id="path468"
         style="fill:#4d4bb7;fill-opacity:1;fill-rule:nonzero;stroke:none"
         d="m 1096.02,3756.26 86.58,50.32 -6.96,-20.49 -86.59,-50.31 6.97,20.48" /><path
         id="path470"
         style="fill:#4d4bb7;fill-opacity:1;fill-rule:nonzero;stroke:none"
         d="m 960.898,4004.77 86.582,50.32 c 1.1,0.63 2.64,0.53 4.34,-0.45 l -86.586,-50.32 c -1.707,0.98 -3.242,1.09 -4.336,0.45" /><path
         id="path472"
         style="fill:#4d4bb7;fill-opacity:1;fill-rule:nonzero;stroke:none"
         d="m 965.234,4004.32 86.586,50.32 22.35,-12.91 -86.58,-50.32 -22.356,12.91" /><path
         id="path474"
         style="fill:#4d4bb7;fill-opacity:1;fill-rule:nonzero;stroke:none"
         d="m 1264.69,3745.09 -86.58,-50.32 c 1.52,0.89 2.17,3.18 1.47,6.15 l 86.58,50.32 c 0.71,-2.98 0.06,-5.27 -1.47,-6.15" /><path
         id="path476"
         style="fill:#4d4bb7;fill-opacity:1;fill-rule:nonzero;stroke:none"
         d="m 1172.76,3729.3 86.58,50.32 6.82,-28.38 -86.58,-50.32 -6.82,28.38" /><path
         id="path478"
         style="fill:#4d4bb7;fill-opacity:1;fill-rule:nonzero;stroke:none"
         d="m 1260.8,3834.12 -86.58,-50.32 c -16.09,-9.35 -38.38,-8.04 -62.96,6.15 l 86.58,50.32 c 24.58,-14.19 46.86,-15.5 62.96,-6.15" /><path
         id="path480"
         style="fill:#4d4bb7;fill-opacity:1;fill-rule:nonzero;stroke:none"
         d="m 1048.81,3999.68 86.59,50.31 c -15.91,-9.24 -25.76,-28.88 -25.84,-56.81 -0.16,-56.2 39.38,-124.67 88.28,-152.91 l -86.58,-50.32 c -48.9,28.24 -88.45,96.72 -88.29,152.92 0.09,27.92 9.94,47.57 25.84,56.81" /><path
         id="path482"
         style="fill:#9996ff;fill-opacity:1;fill-rule:nonzero;stroke:none"
         d="m 999.992,4077.21 86.578,50.31 c 1.17,0.68 2.73,0.49 4.3,-0.42 1.22,-0.7 2.45,-1.84 3.52,-3.35 l -86.59,-50.32 c -1.06,1.51 -2.29,2.65 -3.51,3.36 -1.57,0.9 -3.14,1.09 -4.298,0.42" /><path
         id="path484"
         style="fill:#4d4bb7;fill-opacity:1;fill-rule:nonzero;stroke:none"
         d="m 1309.63,3756.61 -86.58,-50.32 0.6,0.46 86.59,50.32 -0.61,-0.46" /><path
         id="path486"
         style="fill:#4d4bb7;fill-opacity:1;fill-rule:nonzero;stroke:none"
         d="m 1007.8,4073.43 86.59,50.32 18.04,-25.57 -86.58,-50.32 -18.05,25.57" /><path
         id="path488"
         style="fill:#4d4bb7;fill-opacity:1;fill-rule:nonzero;stroke:none"
         d="m 1025.85,4047.86 86.58,50.32 c 7.43,3.59 15.62,5.75 24.44,6.33 l -86.58,-50.31 c -8.82,-0.59 -17.02,-2.75 -24.44,-6.34" /><path
         id="path490"
         style="fill:#4d4bb7;fill-opacity:1;fill-rule:nonzero;stroke:none"
         d="m 1245.43,3728.55 86.58,50.31 -21.77,-21.79 -86.59,-50.32 21.78,21.8" /><path
         id="path492"
         style="fill:#9996ff;fill-opacity:1;fill-rule:nonzero;stroke:none"
         d="m 1330.7,3789.23 -18.06,25.58 -86.58,-50.32 18.05,-25.57 c 2.69,-3.81 3.28,-8.48 1.32,-10.37 l 86.58,50.31 c 1.97,1.9 1.36,6.57 -1.31,10.37" /><path
         id="path494"
         style="fill:#4d4bb7;fill-opacity:1;fill-rule:nonzero;stroke:none"
         d="m 1235.45,3792.08 86.58,50.32 c -1.99,-10.45 -5.16,-19.65 -9.39,-27.59 l -86.58,-50.32 c 4.23,7.94 7.4,17.14 9.39,27.59" /><path
         id="path496"
         style="fill:#4d4bb7;fill-opacity:1;fill-rule:nonzero;stroke:none"
         d="m 1090.01,4073.11 86.58,50.32 6.82,-28.45 -86.58,-50.31 -6.82,28.44" /><path
         id="path498"
         style="fill:#9996ff;fill-opacity:1;fill-rule:nonzero;stroke:none"
         d="m 1170.93,4131.5 -1.89,0.73 -35.1,7.18 c -0.94,0.18 -1.75,0.05 -2.4,-0.33 l -86.58,-50.31 c 0.65,0.37 1.46,0.5 2.4,0.33 l 35.1,-7.19 1.89,-0.72 c 2.52,-1.46 4.86,-4.67 5.66,-8.08 l 86.58,50.32 c -0.8,3.4 -3.14,6.62 -5.66,8.07" /><path
         id="path500"
         style="fill:#4d4bb7;fill-opacity:1;fill-rule:nonzero;stroke:none"
         d="m 1348.71,3829.06 -86.58,-50.32 c 1.07,0.63 1.74,1.96 1.75,3.83 l 86.58,50.32 c -0.01,-1.88 -0.67,-3.21 -1.75,-3.83" /><path
         id="path502"
         style="fill:#4d4bb7;fill-opacity:1;fill-rule:nonzero;stroke:none"
         d="m 1096.83,4044.67 86.58,50.31 c 4.99,-2.23 9.98,-4.66 15.14,-7.64 5.09,-2.94 10.07,-6.27 15.07,-9.79 l -86.6,-50.32 c -4.98,3.53 -9.96,6.86 -15.06,9.8 -5.15,2.98 -10.14,5.4 -15.13,7.64" /><path
         id="path504"
         style="fill:#4d4bb7;fill-opacity:1;fill-rule:nonzero;stroke:none"
         d="m 1226.4,3886.55 86.59,50.32 c 4.17,-12.8 7.28,-25.61 9.2,-38.33 l -86.58,-50.32 c -1.93,12.72 -5.03,25.54 -9.21,38.33" /><path
         id="path506"
         style="fill:#4d4bb7;fill-opacity:1;fill-rule:nonzero;stroke:none"
         d="m 1264,3824.93 86.58,50.32 -0.12,-42.36 -86.58,-50.32 0.12,42.36" /><path
         id="path508"
         style="fill:#9996ff;fill-opacity:1;fill-rule:nonzero;stroke:none"
         d="m 1344.54,3885.63 -22.35,12.91 -86.58,-50.32 22.35,-12.91 c 3.36,-1.93 6.05,-6.51 6.04,-10.38 l 86.58,50.32 c 0.01,3.86 -2.67,8.44 -6.04,10.38" /><path
         id="path510"
         style="fill:#4d4bb7;fill-opacity:1;fill-rule:nonzero;stroke:none"
         d="m 1173.48,3983.07 86.58,50.32 c 8.78,-10.75 16.94,-22.36 24.32,-34.48 l -86.59,-50.32 c -7.37,12.12 -15.53,23.73 -24.31,34.48" /><path
         id="path512"
         style="fill:#4d4bb7;fill-opacity:1;fill-rule:nonzero;stroke:none"
         d="m 1180.44,4003.49 86.58,50.31 -6.96,-20.41 -86.58,-50.32 6.96,20.42" /><path
         id="path514"
         style="fill:#9996ff;fill-opacity:1;fill-rule:nonzero;stroke:none"
         d="m 1263.19,4064.79 -35.04,33.32 -1.89,1.45 c -1.59,0.92 -3.11,1.05 -4.23,0.41 l -86.58,-50.32 c 1.11,0.65 2.64,0.51 4.23,-0.4 l 1.88,-1.46 35.03,-33.31 c 3.14,-3.04 4.87,-7.9 3.85,-10.99 l 86.58,50.31 c 1.02,3.09 -0.7,7.96 -3.83,10.99" /><path
         id="path516"
         style="fill:#4d4bb7;fill-opacity:1;fill-rule:nonzero;stroke:none"
         d="m 1197.79,3948.59 86.59,50.32 18.13,4.68 -86.58,-50.32 -18.14,-4.68" /><path
         id="path518"
         style="fill:#6865f7;fill-opacity:1;fill-rule:nonzero;stroke:none"
         d="m 1111.26,3789.95 c 48.85,-28.2 88.64,-5.52 88.81,50.68 0.16,56.2 -39.37,124.67 -88.23,152.88 -48.91,28.24 -88.7,5.56 -88.87,-50.64 -0.16,-56.2 39.39,-124.68 88.29,-152.92 z m 146.7,45.36 c 3.36,-1.93 6.05,-6.51 6.04,-10.38 l -0.12,-42.36 c -0.02,-3.8 -2.72,-5.33 -6.08,-3.39 l -22.35,12.9 c -1.99,-10.45 -5.16,-19.65 -9.39,-27.59 l 18.05,-25.57 c 2.69,-3.81 3.28,-8.48 1.32,-10.37 l -21.78,-21.8 c -1.19,-1.18 -3.03,-1.11 -4.9,-0.04 -1.22,0.7 -2.45,1.84 -3.5,3.35 l -18.06,25.58 c -7.42,-3.59 -15.62,-5.76 -24.43,-6.34 l 6.82,-28.38 c 1,-4.25 -0.75,-7.11 -3.88,-6.46 l -35.11,7.12 -1.84,0.72 c -2.53,1.47 -4.91,4.71 -5.72,8.09 l -6.82,28.44 c -4.99,2.24 -9.98,4.72 -15.08,7.67 -5.15,2.97 -10.13,6.24 -15.11,9.76 l -6.97,-20.48 c -0.82,-2.44 -3.21,-2.93 -5.75,-1.46 l -1.82,1.38 -35.03,33.38 c -3.14,2.97 -4.87,7.84 -3.85,10.93 l 6.96,20.42 c -8.78,10.74 -16.94,22.35 -24.31,34.47 l -18.14,-4.68 c -1.06,-0.27 -2.29,0.01 -3.51,0.71 -1.87,1.08 -3.705,3.14 -4.885,5.69 l -21.582,46.83 c -1.953,4.16 -1.328,8.12 1.363,8.82 l 18.137,4.68 c -4.168,12.79 -7.278,25.6 -9.199,38.33 l -22.356,12.9 c -3.355,1.95 -6.043,6.59 -6.031,10.39 l 0.125,42.36 c 0.012,3.86 2.707,5.33 6.062,3.39 l 22.356,-12.91 c 1.992,10.46 5.168,19.66 9.394,27.59 l -18.054,25.58 c -2.676,3.81 -3.285,8.48 -1.313,10.44 l 21.778,21.73 c 1.185,1.18 3.025,1.11 4.895,0.04 1.22,-0.71 2.45,-1.85 3.51,-3.36 l 18.05,-25.57 c 7.42,3.59 15.62,5.75 24.44,6.34 l -6.83,28.37 c -1,4.26 0.75,7.11 3.9,6.53 l 35.1,-7.19 1.89,-0.72 c 2.52,-1.46 4.86,-4.67 5.66,-8.08 l 6.82,-28.44 c 4.99,-2.24 9.98,-4.66 15.13,-7.64 5.1,-2.94 10.08,-6.27 15.06,-9.8 l 6.97,20.48 c 0.82,2.48 3.17,2.99 5.69,1.54 l 1.88,-1.46 35.03,-33.31 c 3.14,-3.04 4.87,-7.9 3.85,-10.99 l -6.96,-20.42 c 8.78,-10.75 16.94,-22.36 24.31,-34.48 l 18.14,4.68 c 1.06,0.28 2.3,0 3.52,-0.71 1.86,-1.08 3.7,-3.13 4.88,-5.68 l 21.59,-46.77 c 1.94,-4.22 1.32,-8.18 -1.38,-8.88 l -18.14,-4.68 c 4.18,-12.79 7.28,-25.61 9.21,-38.33 l 22.35,-12.91" /><path
         id="path520"
         style="fill:#9996ff;fill-opacity:1;fill-rule:nonzero;stroke:none"
         d="m 1332.49,3950.43 -21.58,46.77 c -1.18,2.54 -3.02,4.6 -4.87,5.68 -1.22,0.71 -2.45,0.99 -3.53,0.71 l -86.58,-50.32 c 1.06,0.28 2.3,0 3.52,-0.71 1.86,-1.08 3.7,-3.13 4.88,-5.68 l 21.59,-46.77 c 1.75,-3.8 1.42,-7.38 -0.63,-8.57 l 86.58,50.31 c 2.05,1.19 2.38,4.78 0.62,8.58" /></g></g></svg>